<?xml version="1.0" standalone="no"?><!DOCTYPE svg PUBLIC "-//W3C//DTD SVG 1.1//EN" "http://www.w3.org/Graphics/SVG/1.1/DTD/svg11.dtd" ><svg xmlns="http://www.w3.org/2000/svg"><metadata></metadata><defs><font id="SentyZHAO" horiz-adv-x="2200"><font-face font-family="SentyZHAO 新蒂赵孟頫" font-weight="400" font-stretch="normal" units-per-em="2048" panose-1="3 0 6 0 0 0 0 0 0 0" ascent="2000" descent="-500" x-height="0" bbox="-26 -438 2226 1624" underline-thickness="150" underline-position="-217" unicode-range="U+002c-ff0c" /><missing-glyph horiz-adv-x="2200"  /><glyph glyph-name="comma" unicode="," d="M232 185 Q241 183 241 183 Q292 170 305 123 Q305 123 309 111 L309 81 L306 75 Q295 1 240 -51 Q208 -81 114 -116 Q148 -71 157.5 -54 Q167 -37 178 -9 Q115 -5 97 58 Q97 58 94 63 L94 93 Q96 100 97 100 Q110 165 178 182 L191 185 L232 185 Z" /><glyph glyph-name="uni3001" unicode="&#x3001;" d="M388 168 Q486 174 587 154 Q788 113 798 -20 Q810 -164 715 -198 Q679 -211 642 -200 Q606 -190 593 -164 Q559 -97 388 168 Z" /><glyph glyph-name="uni3002" unicode="&#x3002;" d="M665 -43 Q631 -43 607 -22 Q584 -1 584 29 Q584 59 607 80 Q631 101 665 101 Q698 101 722 80 Q746 59 746 29 Q746 -1 722 -22 Q698 -43 665 -43 ZM665 216 Q587 216 532 161 Q477 107 477 29 Q477 -49 532 -104 Q587 -159 665 -159 Q743 -159 797 -104 Q852 -49 852 29 Q852 107 797 161 Q743 216 665 216 Z" /><glyph glyph-name="uni4E00" unicode="&#x4e00;" d="M1242 749 Q1369 740 1460 740 L1469 740 Q1524 740 1621 749 Q1671 735 1781 588 L1781 541 Q1593 588 1488 588 L1233 588 Q840 588 523 446 Q419 478 419 626 Q475 626 1242 749 Z" /><glyph glyph-name="uni4E16" unicode="&#x4e16;" d="M1476 1241 Q1615 1209 1641 1159 L1591 765 L1663 765 Q1782 765 1849 661 Q1834 602 1807 567 Q1646 598 1548 598 Q1496 508 1496 412 L1496 391 Q1600 322 1600 267 Q1341 215 1103 123 L1051 123 Q972 123 957 226 L957 340 L937 340 Q892 340 771 288 L771 173 Q771 70 823 8 Q857 29 885 29 L1155 29 L1217 18 Q1440 18 1631 91 Q1828 26 1828 -13 L1828 -44 Q1828 -89 1807 -127 Q1656 -117 1528 -95 Q1437 -106 1373 -106 L1269 -106 Q1246 -106 1227 -95 Q1159 -127 1061 -127 L844 -127 Q605 -127 605 142 L605 195 Q394 101 295 101 L264 101 Q212 128 212 184 L212 236 Q212 254 409 308 Q601 395 605 412 L605 578 L616 681 Q564 708 564 765 Q568 785 585 785 Q844 726 844 681 L844 651 Q813 526 813 495 Q931 526 989 578 Q999 840 999 962 L999 1013 Q999 1036 1010 1055 Q999 1069 989 1169 L1010 1169 Q1189 1169 1217 878 Q1217 843 1207 661 L1248 661 Q1379 661 1403 931 L1403 1055 Q1331 1129 1331 1179 Q1331 1214 1476 1241 ZM1175 412 L1175 319 L1207 319 Q1296 319 1341 391 L1341 505 L1331 505 Q1230 505 1175 412 Z" /><glyph glyph-name="uni4E2A" unicode="&#x4e2a;" d="M1015 1376 Q1185 1275 1185 1148 L1185 1139 Q574 386 305 335 L305 344 Q305 391 513 590 Q949 1075 949 1168 Q977 1325 1015 1376 ZM1242 1073 Q1530 1021 1885 581 Q1885 561 1895 476 Q1887 476 1838 467 Q1620 498 1620 515 L1620 524 Q1648 559 1648 590 Q1242 1049 1242 1054 L1242 1073 ZM958 789 L967 789 Q1031 789 1194 741 L1194 675 Q1194 636 1166 571 Q1185 307 1185 -82 Q1185 -245 1109 -299 Q1064 -268 986 -138 Q1034 78 1034 240 L1034 496 Q1034 609 958 789 Z" /><glyph glyph-name="uni4EBA" unicode="&#x4eba;" d="M1057 1062 Q1174 1062 1228 920 L1228 911 Q1099 817 1095 798 Q1141 798 1596 428 Q1779 315 1909 315 Q2023 251 2032 230 L2032 192 L1994 192 L1937 202 Q1908 182 1738 173 Q1632 173 1143 608 Q1118 608 1010 703 Q721 408 575 372 Q374 135 206 135 Q191 135 168 173 L168 202 Q168 220 196 220 L244 211 Q843 781 1010 911 Q1057 987 1057 1062 Z" /><glyph glyph-name="uni4ECE" unicode="&#x4ece;" d="M1298 1208 Q1390 1208 1478 934 Q1345 678 1345 565 L1345 555 Q1926 328 1989 243 Q1939 210 1762 148 L1762 139 L1752 139 Q1645 145 1288 470 L1279 470 Q1207 347 854 7 L787 -12 L777 -12 L777 -3 Q1270 847 1270 1019 Q1270 1033 1260 1171 Q1267 1199 1298 1208 ZM427 972 Q543 972 655 764 Q635 723 635 612 L635 575 Q635 559 806 499 Q900 439 900 423 L900 385 Q883 351 844 338 Q834 338 532 442 Q341 146 219 120 L210 139 L210 158 Q210 253 390 621 Q427 751 427 858 L427 972 Z" /><glyph glyph-name="uni505A" unicode="&#x505a;" d="M532 1160 L550 1160 Q676 1147 676 1043 Q646 893 154 333 L145 333 L145 362 Q145 487 469 917 Q469 934 541 1082 Q532 1135 532 1160 ZM793 1160 Q965 1133 965 1004 Q947 827 947 810 L1064 810 Q1076 810 1091 781 L1091 751 Q1091 721 884 625 L866 557 L866 547 Q908 581 1028 605 L1091 577 L1082 625 L1082 655 Q1235 918 1262 1052 Q1252 1106 1252 1140 L1252 1150 Q1377 1150 1415 1073 L1415 1033 Q1415 986 1334 781 L1343 781 Q1595 897 1722 897 L1748 897 Q1865 888 1865 771 L1811 762 Q1748 762 1613 771 Q1572 752 1568 732 Q1613 680 1613 655 Q1613 570 1532 362 L1542 362 Q2068 81 2090 61 L2090 4 L2001 -7 L1992 -7 Q1747 -7 1461 226 L1433 226 Q1318 32 1163 32 Q1100 46 1100 71 L1100 91 Q1106 115 1252 169 Q1252 175 1343 294 Q1339 322 1127 421 Q1033 145 1010 120 Q821 61 821 -7 L785 -7 Q623 -7 559 402 Q569 402 569 411 Q721 411 802 198 L848 188 L856 188 Q908 188 956 402 Q836 353 802 353 Q694 411 694 479 Q746 479 758 596 Q676 577 640 577 Q541 601 541 634 L541 674 Q802 709 802 810 Q811 885 811 975 L811 1043 Q811 1092 793 1160 ZM1163 489 L1163 479 L1415 411 Q1487 593 1487 655 L1461 703 Q1347 670 1171 489 L1163 489 ZM406 605 L424 605 Q464 605 532 275 Q532 80 487 -171 L442 -171 Q396 -171 361 101 L406 605 Z" /><glyph glyph-name="uni5173" unicode="&#x5173;" d="M1236 954 L1285 954 Q1382 954 1382 859 L1382 835 Q1382 785 1163 740 L1139 752 Q992 692 981 692 Q993 660 993 617 L993 534 L1005 534 Q1209 605 1333 665 L1370 665 Q1382 665 1430 581 L1430 558 Q1430 517 1199 486 Q1199 474 1163 462 L1139 474 L1066 462 L1066 474 L981 450 L993 427 L993 367 Q1044 367 1470 2 Q1555 -58 1904 -193 L1929 -229 L1929 -253 L1734 -253 Q1722 -253 1722 -241 L1698 -253 L1637 -253 Q1625 -253 1625 -241 Q1563 -264 1540 -264 Q1321 -148 1163 153 L968 319 L929 98 Q810 -121 677 -121 Q677 -143 446 -217 Q446 -205 434 -205 Q434 -229 409 -229 L385 -229 L385 -193 Q508 -175 689 -14 Q818 152 859 367 L835 367 Q802 367 665 284 L652 284 Q522 319 494 379 Q494 403 725 438 Q896 498 896 522 Q915 618 917.5 629.5 Q920 641 920 680 L835 680 Q628 752 628 776 L628 788 Q632 811 652 811 Q665 811 665 800 L1236 954 ZM1137 1464 Q1342 1360 1342 1222 Q1101 962 981 917 Q981 926 971 926 Q1166 1141 1166 1258 L1166 1303 Q1118 1420 1118 1446 Q1121 1464 1137 1464 ZM718 1366 Q747 1360 747 1294 L747 1249 L757 1249 L835 1303 L854 1303 Q874 1300 874 1285 L776 1043 L757 1034 L727 1034 Q610 1128 610 1177 L610 1249 Q653 1331 718 1366 Z" /><glyph glyph-name="uni5288" unicode="&#x5288;" d="M1251 1573 Q1400 1573 1422 1451 Q1603 1498 1649 1498 L1677 1498 Q1711 1480 1724 1441 Q1674 1391 1554 1356 L1554 1346 Q1582 1346 1582 1328 L1582 1290 Q1582 1257 1497 1148 L1564 1148 L1630 1138 L1630 1110 Q1497 1025 1497 977 L1497 968 L1507 921 Q1653 977 1687 977 L1696 977 Q1781 977 1838 892 L1838 835 Q1526 791 1526 693 Q1497 531 1450 485 L1545 514 Q1715 407 1715 315 L1715 305 Q1715 98 1526 -281 Q1448 -376 1441 -376 L1403 -376 Q1346 -376 1261 -139 L1261 -120 Q1360 -205 1384 -205 L1384 -196 Q1582 117 1582 353 Q1570 394 1526 428 L1289 362 L1289 343 Q1393 285 1393 211 Q1063 -168 929 -168 L929 -158 Q1154 142 1214 239 L1214 305 L1204 305 L968 230 Q929 243 911 277 L911 334 Q932 334 949 325 Q1339 457 1431 476 L1431 485 Q1381 485 1374 627 L1374 693 Q1330 693 1166 590 L1157 590 Q1074 590 1043 675 Q1153 745 1374 845 Q1374 864 1384 864 Q1371 949 1356 949 Q1202 873 1109 873 L1100 873 L1100 911 Q1177 1006 1223 1006 Q1196 1223 1081 1223 L1052 1223 Q1024 1215 968 1072 Q759 952 703 901 L703 883 L712 835 Q928 911 958 911 L986 911 Q1024 891 1024 864 Q1024 817 1015 722 Q1024 660 1024 599 Q914 482 788 428 Q780 334 759 334 L703 334 Q636 334 618 665 L608 665 Q435 438 400 438 L362 438 L362 457 Q561 660 665 1186 Q665 1290 835 1299 Q870 1299 1015 1394 L1100 1337 L1128 1337 Q1171 1337 1337 1403 L1337 1413 L1223 1517 L1223 1555 Q1223 1573 1251 1573 ZM1299 1233 L1299 1195 L1308 1195 L1356 1223 L1356 1214 L1327 1081 L1346 1081 Q1387 1081 1459 1308 L1412 1308 Q1299 1308 1299 1233 ZM769 1110 L797 1110 Q883 1110 901 1223 L901 1242 L873 1242 Q786 1242 769 1110 ZM731 647 L741 599 L769 599 Q833 642 873 760 L863 760 Q731 720 731 647 Z" /><glyph glyph-name="uni5468" unicode="&#x5468;" d="M1500 1369 Q1802 1327 1802 1066 L1821 555 L1802 546 Q1878 72 1878 -211 Q1878 -249 1726 -268 Q1685 -184 1367 -50 Q1367 -38 1291 16 L1291 26 L1301 26 Q1536 -40 1585 -40 L1708 -40 L1708 -31 Q1623 680 1623 1133 Q1575 1274 1546 1274 L1537 1274 Q1121 1159 1121 1133 L1121 1105 Q1121 1076 1150 1028 L1216 1038 L1225 1038 Q1338 1022 1338 991 L1338 972 Q1335 955 1150 886 L1150 811 L1159 764 Q1270 773 1320 773 L1338 773 Q1358 770 1358 754 L1358 698 Q1102 657 1102 546 Q1091 546 1007 575 Q991 575 771 470 Q733 511 733 546 L733 584 Q756 584 979 698 L979 830 L970 830 Q915 784 865 783 L790 877 L790 906 L799 906 L865 896 Q1007 953 1007 972 L1007 991 L998 1085 Q859 1057 828 1057 Q749 1092 714 1161 L714 1199 L723 1199 Q778 1199 875 1189 Q1134 1256 1500 1369 ZM515 830 Q629 770 629 678 Q492 -183 326 -183 Q241 -90 241 -50 Q409 151 468 461 Q506 624 506 698 Q487 793 487 820 Q505 830 515 830 ZM1291 584 Q1386 584 1518 413 L1518 385 Q1457 372 1320 158 L1244 130 Q1196 130 1196 148 Q1135 120 1045 120 L941 120 L941 26 Q891 16 885 16 Q742 87 742 205 L799 433 L828 433 L828 413 Q828 376 894 196 Q1206 196 1206 310 Q1206 330 1216 413 Q973 328 941 328 Q885 361 885 413 Q894 432 894 442 Q944 433 951 433 Q1021 433 1291 584 Z" /><glyph glyph-name="uni548C" unicode="&#x548c;" d="M863 1317 L911 1317 Q1027 1317 1148 1166 L1148 1071 L1100 1071 L1043 1080 Q537 872 495 872 L466 872 L466 910 Q759 1203 883 1232 Q863 1263 863 1288 L863 1317 ZM1800 1043 Q1961 944 1961 825 Q1956 749 1857 560 Q1923 538 1923 437 Q1914 419 1914 409 L1791 409 Q1688 409 1526 390 Q1482 418 1469 418 Q1415 390 1393 390 Q1214 486 1214 664 L1214 769 Q1214 825 1289 882 L1308 882 Q1355 857 1356 844 Q1713 1043 1800 1043 ZM883 1005 L986 1005 Q1035 882 1119 882 Q1137 843 1137 825 L996 683 L996 532 Q1148 499 1148 399 L1148 342 L1100 333 Q1076 333 996 352 L996 -93 Q996 -106 968 -121 L929 -121 Q868 -120 797 -45 Q816 144 816 314 L816 352 L806 352 Q551 49 513 49 L466 49 Q396 49 390 87 Q476 239 655 484 L655 494 Q516 409 456 409 L333 409 Q274 440 239 504 L239 532 Q271 599 844 863 L844 938 Q883 938 883 1005 ZM1544 683 Q1510 683 1422 721 Q1459 623 1469 570 L1526 570 Q1671 570 1734 835 Q1681 798 1544 683 Z" /><glyph glyph-name="uni5582" unicode="&#x5582;" d="M1544 1322 Q1645 1322 1658 1189 L1658 1180 Q1624 1051 1431 820 L1242 735 Q1222 697 1194 697 Q1166 716 1128 716 Q1105 716 986 707 Q873 975 873 1104 L873 1123 L901 1123 Q901 1089 1043 906 L1034 849 Q1062 849 1062 811 L1091 811 Q1142 811 1166 858 Q1148 962 1071 962 L1071 981 Q1157 981 1157 1066 Q1142 1151 1081 1151 L1081 1208 L1100 1208 Q1488 1282 1488 1322 L1544 1322 ZM1280 1123 L1280 1085 Q1287 1085 1336 1094 L1450 1066 Q1450 1093 1497 1237 L1488 1237 Q1450 1246 1422 1246 Q1280 1212 1280 1123 ZM1374 1038 Q1374 1011 1299 906 L1299 895 L1356 895 Q1412 956 1412 1028 L1412 1038 L1374 1038 ZM674 981 Q759 944 759 849 L759 839 Q655 713 655 669 L664 621 L476 546 Q483 530 495 433 L466 433 Q371 433 239 792 L248 792 Q300 792 466 641 Q598 715 598 849 L589 849 Q438 792 399 792 L390 792 Q353 807 353 858 Q353 883 674 981 ZM1677 820 Q1829 795 1829 764 L1829 735 Q1829 710 1687 678 L1687 641 Q1687 530 1582 508 Q1450 390 1450 385 L1450 356 Q1541 319 1706 281 Q1888 170 1942 63 Q1961 60 1961 44 L1961 -31 Q1961 -51 1932 -51 Q1878 -51 1431 271 L1422 271 Q1245 -28 1176 -60 Q1107 -126 1034 -126 Q958 -85 958 -22 L958 148 Q958 353 1091 479 L1091 461 Q1056 253 1043 253 Q1067 58 1100 26 L1119 26 Q1225 26 1365 271 Q1384 302 1384 328 L1327 347 L1194 337 Q1364 440 1412 479 Q1421 479 1554 621 L1554 659 L1488 659 Q1299 659 892 433 Q849 394 806 394 Q775 394 750 527 Q764 565 778 565 L806 565 Q829 546 844 546 Q1520 735 1667 801 Q1667 820 1677 820 Z" /><glyph glyph-name="uni5927" unicode="&#x5927;" d="M1038 1353 Q1053 1324 1180 1229 Q1152 1062 1114 700 Q1270 747 1388 775 L1388 784 L1379 832 L1426 832 Q1738 832 1738 662 L1738 633 Q1706 633 1691 624 L1606 633 Q1228 576 1228 548 Q1726 18 1880 18 Q2126 -77 2126 -133 L2126 -162 L1918 -162 Q1863 -162 1767 -152 Q1753 -162 1710 -162 Q1622 -162 1180 368 Q1105 457 1105 473 L1086 473 L1086 435 Q1086 80 679 -29 Q596 -57 499 -76 Q376 -54 376 -29 L376 18 L499 18 Q685 18 877 368 Q887 436 887 444 Q665 368 556 368 L518 368 Q433 430 433 520 Q492 586 527 586 Q584 567 584 558 Q943 597 943 718 Q991 1086 991 1201 L991 1220 L981 1334 Q998 1334 1038 1353 Z" /><glyph glyph-name="uni5929" unicode="&#x5929;" d="M1190 1376 Q1289 1376 1414 1230 L1414 1209 Q1414 1182 1179 1122 Q1179 1103 1092 1103 Q1092 1122 1072 1122 Q868 986 732 986 Q629 986 527 1073 L527 1122 Q544 1179 946 1289 Q1024 1346 1190 1376 ZM965 976 L985 976 Q998 976 1043 918 L1043 674 L1054 674 Q1297 809 1394 840 Q1506 802 1530 752 L1530 733 Q1530 675 1471 635 L1452 635 L1414 665 Q1149 593 1101 548 Q1523 -7 1851 -7 Q2115 -52 2115 -153 L2086 -153 Q2056 -153 2056 -143 L2007 -153 L1871 -153 Q1849 -153 1832 -143 Q1815 -153 1793 -153 L1705 -153 Q1388 -153 1170 227 Q1020 420 995 431 Q979 431 917 120 Q892 -3 790 -75 Q615 -183 498 -183 L440 -183 L391 -173 L391 -153 Q810 193 810 362 L810 382 Q580 256 488 256 Q430 256 430 353 Q459 400 508 450 L527 450 L585 441 Q715 476 849 597 Q839 613 829 684 Q927 684 946 966 L965 976 Z" /><glyph glyph-name="uni5B50" unicode="&#x5b50;" d="M1266 1356 Q1408 1281 1408 1176 L1408 1166 L1323 1166 Q1261 1165 1096 967 L1114 967 Q1127 967 1209 977 Q1248 931 1285 787 Q1678 844 1796 844 Q1919 772 1919 703 L1919 693 Q1839 664 1834 664 L1635 684 Q1398 664 1294 646 Q1323 492 1323 371 Q1323 28 1114 -159 L1105 -159 Q936 -90 661 -35 L661 -17 Q1162 -17 1162 210 Q1191 210 1191 428 L1191 646 Q402 475 291 447 L282 494 L282 561 Q292 561 310 570 Q359 551 386 551 Q964 731 1152 731 L1152 835 Q1151 849 1039 939 Q1144 1088 1266 1356 ZM1020 1194 Q770 844 679 844 Q615 899 575 967 L575 996 Q580 1025 755 1176 L774 1176 L774 1100 L812 1100 Q954 1194 1020 1194 Z" /><glyph glyph-name="uni5E78" unicode="&#x5e78;" d="M1132 1549 Q1204 1525 1445 1302 L1445 1274 Q1314 1274 1236 1019 L1246 1019 L1445 1075 Q1445 1136 1397 1217 L1406 1217 Q1549 1180 1549 1114 Q1740 1170 1833 1170 L1880 1170 Q1965 1151 1965 1123 L1965 1085 Q1961 1065 1918 1047 Q1861 1047 1643 1066 Q1565 1052 1483 895 Q1454 895 1426 829 L1463 820 Q1468 820 1501 829 Q1564 804 1577 773 L1577 744 Q1577 728 1416 669 Q1312 605 1312 574 Q1338 413 1369 413 Q1566 432 1577 442 Q1710 401 1710 385 L1710 347 Q1710 328 1691 328 L1671 328 Q1653 328 1653 347 L1350 300 L1350 44 Q1350 -254 1246 -353 L1189 -353 L1170 -240 Q1198 164 1198 234 L1189 234 Q837 82 763 82 Q725 82 707 120 L707 129 Q707 237 830 290 L830 281 Q830 267 801 253 Q811 236 811 214 Q1236 322 1236 479 L1236 489 L1227 536 L1208 536 Q1115 517 1104 517 L1142 574 L1142 584 Q1142 602 1113 602 Q885 479 867 479 L858 479 L858 593 Q858 615 1019 650 L877 811 Q561 641 318 479 L272 479 Q243 479 234 612 Q234 654 631 811 Q796 867 839 867 Q839 933 811 1009 L877 1066 L887 1066 Q896 1066 972 962 L990 962 Q1095 1036 1095 1123 Q988 1164 905 1274 L905 1322 Q1152 1333 1152 1379 Q1132 1510 1132 1549 ZM1010 867 Q1069 731 1113 707 Q1403 893 1406 1000 L1397 1000 Q1324 1000 1010 867 Z" /><glyph glyph-name="uni5FC3" unicode="&#x5fc3;" d="M1266 1091 L1266 1071 L1219 863 L1285 741 Q1226 741 1171 693 L1143 693 Q878 883 878 1053 L925 1053 Q1069 949 1105 949 Q1185 1028 1266 1091 ZM1644 1091 L1720 1091 Q1846 1091 1975 826 Q1957 795 1957 778 L1909 778 Q1808 863 1758 863 L1597 863 L1597 883 L1701 996 L1644 1091 ZM565 986 L575 986 Q751 986 887 523 Q1069 277 1351 277 Q1597 310 1597 343 Q1558 382 1285 721 L1285 741 Q1491 572 1805 362 L1805 343 Q1805 107 1313 107 Q1066 107 736 438 Q565 855 565 986 ZM442 778 L452 778 L452 665 Q452 580 433 504 Q499 485 499 428 Q499 419 490 419 L499 381 Q490 261 481 248 Q499 217 499 192 L499 163 L452 154 Q272 264 272 353 L291 362 Q225 531 225 598 Q239 637 253 637 L282 637 Q376 598 385 598 Q385 714 442 778 Z" /><glyph glyph-name="uni6211" unicode="&#x6211;" d="M925 1591 Q1145 1591 1171 1393 L1285 967 L1322 949 Q1391 958 1408 967 Q1490 939 1530 939 L1530 864 L1455 864 Q1398 857 1398 835 L1398 825 Q1398 798 1512 560 L1559 560 L1568 655 Q1559 704 1559 712 L1568 712 Q1692 655 1692 560 Q1681 493 1587 362 Q1657 188 1824 -64 L1843 -64 Q1854 21 1872 21 L1861 40 L1861 69 L1890 69 Q1975 -170 1975 -358 L1975 -386 L1909 -395 L1881 -395 Q1830 -373 1644 31 Q1627 46 1521 248 L1502 258 Q1263 49 1190 49 L1171 49 L1171 69 Q1393 303 1455 409 Q1455 521 1342 645 Q1135 551 1029 428 Q982 428 954 49 Q917 -7 906 -7 L887 -7 Q787 -7 622 126 Q421 21 405 21 L405 31 Q405 56 348 126 L348 163 Q348 188 528 239 Q601 312 840 437 L840 608 Q799 608 405 409 Q396 409 396 419 L329 409 L301 409 Q256 439 225 504 L225 513 Q277 599 301 608 Q373 579 452 560 Q803 740 830 740 Q830 892 764 920 Q399 750 385 750 L367 750 L367 778 Q524 968 679 1043 Q749 1127 972 1308 Q978 1365 1001 1365 L1048 1365 L1048 1374 Q1047 1409 991 1497 L944 1488 L935 1488 Q915 1488 915 1507 L925 1591 ZM1322 1337 Q1445 1337 1568 1242 L1568 1157 L1379 1157 Q1322 1284 1322 1337 ZM887 986 L887 977 Q915 930 963 930 Q954 911 954 901 Q976 835 982 835 Q1157 887 1200 930 Q1123 1052 1123 1118 L1123 1157 L1114 1157 Q1023 1125 887 986 ZM991 665 L991 560 Q1288 722 1294 740 L1294 759 Q1294 794 1266 816 Q1000 708 991 665 ZM689 182 L689 172 Q691 154 707 154 L774 154 Q830 154 830 211 L830 267 Q689 222 689 182 Z" /><glyph glyph-name="uni623F" unicode="&#x623f;" d="M1031 1455 L1060 1455 Q1249 1455 1249 1295 Q1239 1276 1239 1266 L1173 1266 Q1099 1325 1031 1427 L1031 1455 ZM1485 1295 Q1599 1219 1599 1153 Q1447 1038 1447 1030 L1447 1020 Q1504 1013 1504 945 L1504 935 Q1504 895 1126 840 L955 840 L955 888 Q1013 939 1182 1020 L1362 1209 L1353 1209 Q1101 1131 955 1039 Q955 863 775 528 Q789 519 880 509 Q1218 614 1258 614 L1258 670 Q1164 670 1116 736 L1116 746 L1126 793 L1173 793 Q1381 793 1381 680 L1769 746 Q1845 699 1845 614 L1788 614 Q1740 614 1646 603 Q1634 651 1618 651 Q1562 651 1400 603 L1400 594 Q1467 516 1467 481 Q1317 194 1192 150 Q1192 141 1097 74 L1097 55 Q1097 42 1211 -58 Q1375 12 1457 159 Q1539 251 1561 349 Q1504 387 1504 443 L1504 471 L1542 471 Q1645 471 1732 339 L1732 273 Q1732 161 1467 -144 Q1290 -257 1182 -257 Q1099 -257 1031 36 L1022 36 L747 -39 L747 8 Q825 17 1202 415 Q1266 495 1277 547 Q1268 547 1268 557 Q994 424 842 424 L832 424 L775 519 L766 519 Q678 317 426 -30 Q167 -267 94 -267 L85 -267 L85 -248 Q427 198 747 812 Q842 970 842 1039 Q788 1039 747 1115 Q900 1115 1485 1295 Z" /><glyph glyph-name="uni6240" unicode="&#x6240;" d="M1743 1136 Q1785 1097 1831 1028 Q1808 969 1791 969 Q1645 980 1576 980 Q1561 980 1459 969 L1459 960 Q1528 875 1528 833 L1528 754 L1381 577 L1381 559 Q1407 559 1762 695 Q1818 618 1870 618 L1870 568 Q1749 520 1616 480 L1606 461 L1606 451 Q1713 403 1713 235 L1713 0 Q1713 -32 1694 -136 L1664 -136 Q1606 -136 1508 0 L1508 30 Q1537 30 1537 79 Q1547 392 1547 441 Q1394 383 1214 353 Q1165 426 1165 461 L1165 471 Q1165 505 1381 901 Q1322 950 1312 950 Q890 868 657 735 Q567 735 490 911 Q504 911 519 969 Q1471 1116 1743 1136 ZM872 794 Q946 794 1018 677 Q983 -9 911 -9 L872 -9 Q815 33 754 118 Q822 118 822 186 L822 256 L784 256 Q627 316 627 421 L627 451 L637 471 Q734 461 784 461 L803 461 Q822 461 822 480 L822 598 Q822 607 784 715 L784 725 Q784 737 872 794 ZM451 432 L460 432 Q481 345 481 315 L499 315 L539 344 L539 226 Q539 125 569 -29 Q537 -48 510 -48 Q390 -48 313 226 Q304 277 304 344 L304 373 Q313 373 451 432 Z" /><glyph glyph-name="uni660E" unicode="&#x660e;" d="M1644 1365 Q1763 1365 1778 924 Q1841 504 1967 -163 Q1939 -224 1939 -262 L1931 -262 Q1761 -222 1590 -56 L1598 -56 Q1773 -91 1814 -91 Q1814 -82 1823 -82 Q1748 367 1697 367 Q1482 367 1347 403 Q1203 -173 1041 -173 L1041 -163 Q1347 787 1347 1265 Q1365 1265 1365 1329 L1383 1329 L1490 1229 Q1592 1365 1644 1365 ZM759 1192 L804 1192 Q938 1192 938 690 L948 690 L1019 734 L1019 725 Q920 665 920 52 Q912 52 912 -65 Q895 -75 885 -75 Q832 -75 777 70 L777 87 Q821 87 821 168 L821 330 L813 330 Q747 274 596 -47 L579 -47 Q495 -47 453 24 L453 70 Q480 70 480 87 L480 96 Q364 205 364 771 Q327 771 318 932 L345 950 Q369 944 516 815 L516 626 Q558 626 660 671 Q815 626 821 626 L821 681 Q795 879 795 923 L795 977 L777 977 Q655 869 615 869 L596 869 Q516 914 516 977 L516 1031 Q636 1152 759 1192 ZM1463 951 L1463 862 L1598 862 Q1601 843 1616 843 L1652 843 L1652 888 Q1652 974 1625 1130 L1616 1130 Q1539 1011 1482 996 Q1465 996 1463 951 ZM1401 600 Q1409 583 1409 574 Q1383 574 1383 556 L1383 475 Q1383 462 1409 447 Q1501 484 1625 484 L1707 484 L1707 493 Q1707 616 1652 708 Q1582 671 1463 628 Q1544 736 1544 807 L1473 807 Q1401 755 1401 600 ZM516 608 L516 357 Q523 168 561 168 Q775 399 821 473 L821 590 Q751 590 624 492 Q624 608 516 608 Z" /><glyph glyph-name="uni6709" unicode="&#x6709;" d="M826 1460 L1271 1460 Q1348 1425 1384 1309 L1403 1309 Q1540 1356 1573 1356 Q1670 1307 1706 1232 L1706 1223 Q1649 1195 1337 1129 Q1146 1006 1110 1006 L1100 1006 L1081 1015 Q823 548 627 306 Q484 211 448 211 L428 211 L334 220 L334 249 Q811 724 873 873 L873 911 Q864 901 759 892 Q667 892 590 958 L590 978 Q590 993 901 1100 Q1148 1193 1148 1318 L1119 1318 L978 1289 Q877 1338 826 1460 ZM1488 1006 Q1592 1006 1592 835 Q1592 800 1573 703 Q1602 219 1602 -262 L1602 -357 Q1551 -432 1441 -432 L1072 -139 L1053 -139 Q1053 -224 978 -224 Q892 -208 892 -139 L892 -45 Q892 649 1024 854 L1063 873 L1063 854 Q1063 811 1053 637 Q1081 627 1081 618 Q1139 637 1252 637 Q1431 577 1431 533 Q1431 486 1243 409 Q1223 372 1223 306 Q1307 286 1469 229 Q1469 240 1479 240 Q1460 386 1460 523 L1460 807 Q1460 826 1441 826 L1431 826 Q1340 750 1299 750 L1129 750 L1129 779 Q1379 1006 1488 1006 ZM1034 362 L1034 334 L1053 268 L1072 268 Q1252 430 1252 505 Q1251 517 1204 542 L1119 542 Q1034 542 1034 362 ZM1110 173 L1053 173 Q1044 124 1034 -16 Q1328 -272 1460 -272 Q1479 -237 1479 -196 L1479 -16 Q1479 154 1337 154 Q1243 178 1243 192 Q1171 173 1110 173 Z" /><glyph glyph-name="uni671D" unicode="&#x671d;" d="M674 1437 L722 1437 Q895 1437 895 1225 Q1021 1173 1041 1157 L1050 1137 L1050 1090 Q1022 1090 799 896 L799 876 L808 876 Q909 935 964 935 Q964 920 992 906 L1089 906 Q1089 881 1098 828 Q1068 714 953 500 L953 432 Q817 431 529 181 L519 162 L519 142 L529 142 Q766 273 886 316 Q939 307 964 307 L964 278 Q885 181 847 181 Q857 21 857 -61 L857 -90 L838 -158 L799 -158 Q683 -132 683 -12 L693 84 Q643 84 394 -109 L364 -109 Q330 -109 316 -3 L316 75 Q437 146 558 278 Q374 503 374 693 L374 731 L412 731 Q498 664 567 664 Q683 857 683 944 Q625 980 548 1069 L548 1079 Q548 1117 693 1147 L693 1311 Q693 1349 674 1437 ZM1669 1262 Q1804 1200 1804 1118 Q1804 980 1795 742 Q1814 388 1833 325 Q1833 316 1823 296 Q1852 114 1852 -109 L1852 -205 L1737 -205 Q1653 -168 1427 75 L1427 94 L1436 94 Q1592 7 1688 7 L1698 7 L1698 17 Q1640 628 1640 1002 L1659 1099 L1533 983 L1514 983 Q1460 983 1408 1069 L1408 1147 Q1426 1147 1669 1262 ZM1205 1032 Q1360 1032 1360 876 L1360 828 L1369 828 Q1432 848 1457 848 Q1530 848 1611 779 L1611 712 Q1495 643 1495 606 Q1481 606 1457 558 L1466 558 Q1518 567 1553 567 Q1640 471 1640 461 L1640 441 Q1640 422 1572 404 Q1471 432 1369 432 L1331 432 L1331 422 Q1265 -22 1186 -22 L1089 -22 Q1076 -22 1041 26 L1041 45 Q1161 45 1224 848 L1224 876 Q1205 940 1205 963 L1205 1032 ZM1360 770 L1360 761 Q1360 730 1350 577 Q1457 661 1457 770 L1360 770 ZM712 742 Q693 709 693 683 L732 683 Q811 674 867 674 Q877 679 877 742 Q855 742 771 731 L712 742 ZM587 596 L587 586 L645 441 Q750 500 799 509 L799 558 Q757 558 587 596 Z" /><glyph glyph-name="uni67F4" unicode="&#x67f4;" d="M1533 1556 L1591 1556 L1591 1290 Q1591 1264 1579 1245 Q1591 1226 1591 1201 L1591 1101 Q1591 1077 1579 1057 Q1591 1038 1591 1002 Q1852 1090 1953 1090 L1953 1046 Q1953 1035 1627 935 Q1568 895 1568 856 Q1568 679 1684 679 L1684 669 L1884 691 L1884 624 Q1884 583 1708 569 Q1507 569 1452 835 Q1423 835 1159 724 L1159 713 Q1243 713 1334 525 Q1568 496 1568 458 L1568 436 Q1322 411 1322 326 L1322 -119 Q1322 -175 1345 -252 Q1345 -293 1275 -340 L1251 -340 Q1165 -321 808 -86 L785 -86 Q785 -119 772 -163 L716 -163 Q540 -38 540 48 Q540 58 551 137 L703 26 L902 137 L902 125 Q843 -11 843 -41 Q923 -122 1182 -163 L1182 281 Q1146 281 1146 292 Q890 203 855 203 Q680 238 680 281 L680 302 Q869 334 1170 436 Q1170 576 1100 691 Q575 369 504 369 L481 369 L481 392 Q886 649 902 679 L902 691 Q750 691 750 1046 L750 1268 L772 1268 Q848 1222 867 1180 L867 1167 Q867 1144 855 1124 Q867 1104 867 1079 L867 1046 Q867 1035 855 1035 Q871 969 890 969 L924 969 Q1014 1234 1146 1234 L1170 1234 Q1193 1234 1206 1113 Q1193 1069 1193 1035 Q1272 1090 1311 1090 L1275 880 L1287 880 Q1389 935 1463 935 L1486 1333 Q1463 1400 1416 1400 L1416 1434 Q1439 1556 1533 1556 ZM1030 1067 Q924 801 924 702 L937 702 Q1055 702 1146 824 Q1082 935 1077 1067 L1030 1067 ZM470 856 L481 856 L609 746 Q609 728 575 602 L562 602 Q477 669 445 669 L445 702 Q445 773 470 856 ZM1533 225 Q1801 72 1801 -74 L1801 -86 L1754 -96 L1497 -29 Q1508 -6 1521 92 Q1508 176 1497 203 Q1533 214 1533 225 Z" /><glyph glyph-name="uni6D77" unicode="&#x6d77;" d="M901 1435 L948 1435 Q1034 1390 1034 1303 L1034 1284 Q1034 1163 892 924 L911 924 Q1214 1170 1412 1170 L1431 1170 L1431 1151 Q1406 1151 1119 943 L1119 754 L1459 877 L1478 877 Q1522 858 1564 791 L1544 517 L1743 517 Q1951 508 1951 470 L1951 432 L1942 432 Q1651 460 1592 460 L1544 460 Q1509 460 1487 186 L1733 92 L1762 53 L1762 25 L1696 25 L1459 63 Q1333 -240 1232 -240 Q1217 -238 1166 -155 L1166 -107 L1213 -116 L1232 -116 Q1308 -39 1308 44 L1308 82 Q1308 110 1137 110 L1091 110 Q898 110 683 -50 Q663 -49 627 7 L627 25 Q764 25 872 328 L872 357 Q494 249 494 177 Q456 -91 409 -230 Q248 -230 248 53 Q296 426 296 565 Q284 565 248 631 L248 659 L314 659 Q378 659 437 593 Q437 583 428 583 L437 546 Q371 251 371 120 L371 53 L381 53 Q423 53 475 252 Q456 283 456 309 L456 338 Q459 357 475 357 Q504 357 551 328 Q643 328 929 470 Q970 470 1062 896 L1014 905 Q702 641 702 546 Q655 546 617 593 L617 602 Q901 1280 901 1340 L901 1435 ZM399 1321 Q466 1321 598 1227 L598 1123 Q598 1108 561 1085 L532 1085 Q359 1293 353 1293 L353 1303 Q369 1303 399 1321 ZM1270 697 L1270 659 L1299 659 Q1299 599 1242 517 Q1270 498 1308 498 Q1431 498 1431 650 L1431 678 Q1426 773 1384 773 Q1296 735 1270 697 ZM1091 659 L1034 460 L1062 460 Q1166 460 1166 631 Q1136 659 1091 659 ZM1232 423 Q1232 383 1242 318 L1213 186 L1336 186 Q1376 186 1402 451 Q1393 451 1393 460 Q1232 442 1232 423 ZM911 158 L958 158 Q1119 184 1119 318 L1119 347 Q1119 413 1052 413 L1034 413 Q977 413 911 167 L911 158 Z" /><glyph glyph-name="uni6E38" unicode="&#x6e38;" d="M1487 1473 L1535 1473 Q1628 1473 1639 1331 Q1639 1271 1544 1028 L1553 1028 Q1630 1028 1676 1057 Q1741 1047 1781 1047 L1781 1019 Q1707 929 1326 716 Q1260 799 1260 829 Q1270 848 1270 858 L1260 858 Q1169 858 1052 726 L1052 659 Q1137 569 1137 498 L1137 479 Q1137 380 1090 167 Q1113 167 1166 157 Q1416 233 1497 233 Q1468 356 1468 413 Q1535 441 1535 507 L1516 507 Q1295 337 1213 337 Q1203 347 1194 451 Q1218 451 1279 527 L1317 517 L1696 735 Q1790 713 1790 687 L1790 659 Q1633 445 1601 328 Q1609 296 1658 271 L1771 271 L1828 309 Q1951 261 1951 233 L1951 214 Q1951 201 1923 186 L1818 186 Q1658 180 1658 139 Q1676 78 1676 73 Q1658 70 1658 54 Q1658 36 1676 -22 Q1655 -277 1535 -277 Q1316 -224 1279 -154 L1279 -136 L1308 -136 Q1516 -136 1516 34 L1516 148 L1506 148 Q1442 148 1137 63 L1137 73 Q1113 120 1062 120 Q1062 -45 815 -136 Q802 -135 778 -88 L778 -41 L825 -51 L835 -51 Q1005 60 1005 356 L1005 441 L995 441 Q815 268 673 -41 L664 -41 Q588 -41 588 54 Q948 493 948 640 Q948 661 901 669 Q723 527 636 527 Q560 527 560 621 L560 640 Q564 664 967 867 L967 924 L901 924 L901 934 L948 1085 Q923 1245 853 1245 L853 1284 Q853 1302 882 1302 Q1071 1279 1071 1199 L1071 1170 Q1071 1088 1005 924 L1014 924 L1185 962 Q1246 934 1336 934 Q1497 1209 1497 1331 Q1497 1354 1487 1473 ZM324 1132 Q541 1132 541 1000 Q541 945 475 886 L419 886 Q419 910 437 991 Q367 1042 324 1113 L324 1132 ZM267 669 Q352 669 456 555 Q408 216 408 177 Q537 290 551 290 L560 290 L560 271 Q408 -141 333 -240 L324 -240 Q275 -212 248 -145 Q314 322 314 546 Q267 631 267 659 L267 669 Z" /><glyph glyph-name="uni754C" unicode="&#x754c;" d="M1408 1444 L1437 1444 Q1598 1416 1598 1322 L1598 1303 Q1598 1236 1380 792 Q1315 697 1200 669 Q1089 555 1058 555 L1058 527 Q1248 493 1248 177 L1248 120 L1276 120 L1276 45 Q1276 -44 1266 -117 Q1276 -166 1276 -211 Q1241 -438 1172 -438 Q1122 -438 888 -315 L888 -268 L897 -268 Q933 -268 1115 -306 Q1153 -266 1153 -211 L1153 -173 Q1153 336 1030 461 L1011 470 Q908 449 481 101 L405 101 Q396 117 396 139 L396 177 Q396 251 538 319 L547 319 L585 309 Q585 321 878 584 Q679 489 604 489 Q565 508 547 508 L547 555 Q557 572 784 660 Q841 696 841 706 Q712 706 462 1142 L462 1274 L490 1274 Q753 1049 860 1000 Q878 1000 1011 1057 L1002 1094 L1011 1208 L1002 1208 Q936 1190 888 1190 Q821 1190 718 1274 L718 1322 L737 1322 L793 1312 Q1230 1444 1408 1444 ZM1182 1293 L1182 1123 Q1187 1094 1248 1094 L1248 1057 Q1153 955 1153 877 L1153 830 L1219 830 Q1418 1120 1418 1303 Q1380 1341 1361 1341 Q1264 1322 1182 1293 ZM878 896 L878 868 Q901 820 973 763 L992 763 L1002 811 L1002 905 Q1002 925 983 925 Q958 925 878 896 ZM841 338 L878 338 Q963 287 963 272 L963 205 Q963 94 633 -240 L613 -249 L557 -249 Q538 -249 538 -230 L538 -164 Q541 -145 557 -145 L585 -145 L585 -164 Q841 125 841 272 L841 338 ZM1305 338 L1323 338 Q1344 338 1361 328 Q1380 338 1390 338 Q1583 318 2014 111 Q2033 48 2052 -98 L1957 -107 Q1891 -107 1446 215 Q1334 240 1305 290 L1305 338 Z" /><glyph glyph-name="uni7684" unicode="&#x7684;" d="M1346 1356 Q1459 1309 1459 1242 Q1459 1110 1280 798 L1299 798 L1658 939 L1687 939 Q1847 939 1895 712 L1895 608 Q1893 420 1696 -73 Q1630 -123 1630 -159 L1563 -159 Q1507 -159 1355 60 Q1332 60 1299 173 Q1301 192 1317 192 L1327 192 Q1482 88 1554 88 L1573 88 Q1618 133 1705 485 Q1743 649 1743 788 Q1743 795 1733 844 L1355 722 L1223 750 Q1223 708 1015 504 Q949 382 920 40 L901 31 L882 31 Q806 70 806 126 L816 220 L806 220 Q685 106 608 106 L561 106 L608 182 L608 192 Q555 192 465 286 Q476 443 476 523 L476 693 Q391 646 343 646 L305 646 Q305 669 721 1176 L769 1299 Q759 1317 759 1327 L797 1327 Q847 1327 901 1242 L901 1185 Q901 1091 835 1091 L835 1034 L863 1034 Q952 1034 977 911 L977 854 Q977 843 958 750 L958 665 L967 599 L958 599 Q967 583 967 551 L986 551 Q1233 994 1327 1346 L1346 1356 ZM561 759 Q570 759 636 674 Q702 693 750 693 L816 693 Q835 693 835 712 L835 911 Q835 926 797 949 Q723 949 561 759 ZM645 447 Q645 426 655 409 Q617 345 617 220 L636 211 Q835 380 835 447 L835 542 Q740 599 730 599 Q645 557 645 447 ZM1431 504 L1488 504 Q1539 504 1563 457 L1563 419 Q1415 325 1137 325 Q1011 357 995 391 L995 428 Q1381 504 1431 504 Z" /><glyph glyph-name="uni798F" unicode="&#x798f;" d="M707 1426 L717 1426 Q897 1354 897 1190 L877 1180 L868 1180 Q780 1180 707 1388 L707 1426 ZM1606 1322 Q1653 1315 1653 1293 L1653 1265 Q1653 1247 1360 1152 Q1237 1152 1142 1247 L1142 1275 L1606 1322 ZM934 1133 Q1021 1114 1038 1114 Q1038 1064 830 764 L830 735 L943 735 Q963 735 963 698 L1019 698 Q1057 879 1057 915 L1067 915 Q1080 915 1095 868 Q1208 906 1540 1048 Q1672 1020 1672 972 Q1672 897 1511 735 L1492 735 L1492 698 L1502 698 Q1644 698 1644 660 L1644 650 Q1613 594 1208 489 Q1180 590 1180 612 L1388 830 L1379 830 Q1133 792 1133 698 Q1133 688 1142 688 Q1114 479 1114 376 Q1132 367 1142 367 Q1660 527 1720 527 Q1906 527 1946 347 L1946 319 Q1946 63 1757 -229 L1729 -229 Q1623 -124 1558 -116 Q1366 -144 1360 -144 L1322 -135 Q1159 -201 1095 -201 Q977 -201 963 395 L963 527 Q963 565 811 584 L811 575 Q792 248 773 158 Q783 94 783 54 L783 45 Q776 -229 726 -229 Q665 -229 622 -116 Q660 92 678 499 L632 499 Q433 73 253 73 L253 82 Q561 550 622 707 L622 726 Q467 584 385 584 Q279 631 272 660 L272 669 Q421 669 887 1114 L934 1133 ZM1483 395 L1483 357 Q1483 318 1473 253 Q1483 236 1483 215 L1549 215 Q1672 208 1672 177 L1672 139 Q1473 139 1473 -12 Q1638 -59 1701 -59 Q1805 139 1805 329 L1805 385 Q1790 470 1729 470 Q1697 470 1483 395 ZM1123 224 L1123 92 Q1126 73 1142 73 L1151 73 Q1247 73 1370 187 L1370 272 L1360 319 Q1279 319 1123 224 ZM1180 36 L1142 36 L1142 7 Q1147 -98 1171 -116 Q1253 -116 1370 -69 Q1370 -63 1360 54 L1350 54 Q1256 36 1180 36 Z" /><glyph glyph-name="uni7CAE" unicode="&#x7cae;" d="M664 1299 L740 1299 Q807 1299 807 1232 L807 1204 Q807 1102 768 939 L778 939 Q827 968 920 1129 L910 1147 L910 1176 L929 1176 Q1024 1176 1024 1034 L1128 1034 Q1204 1034 1223 1138 L1223 1147 Q1146 1147 1043 1252 L1043 1280 Q1043 1299 1072 1299 Q1139 1289 1147 1289 Q1165 1299 1175 1299 Q1194 1289 1204 1289 Q1222 1299 1232 1299 Q1347 1248 1374 1214 L1374 1138 L1440 1138 L1450 1176 L1601 1176 Q1724 1176 1724 987 Q1724 845 1601 693 L1601 684 Q1762 564 1762 523 L1762 514 Q1735 464 1468 362 L1468 343 Q1560 230 1932 88 Q2036 32 2036 21 L2036 12 Q2036 -64 1932 -64 L1771 -64 Q1635 -64 1459 201 Q1450 201 1374 258 Q1374 166 1118 -82 L1090 -101 L1043 -101 Q948 -7 948 107 Q948 406 995 798 Q936 769 768 741 L768 523 L778 523 L778 580 L835 580 Q863 500 882 381 Q872 381 853 372 L759 372 L750 353 Q750 334 759 334 Q750 276 740 98 Q740 85 759 -7 Q746 -46 712 -64 L645 -64 Q645 -28 560 135 L560 173 L579 173 Q638 98 655 98 L674 98 Q683 209 683 258 L683 476 Q671 476 485 192 Q306 50 257 50 L257 88 Q257 188 485 448 Q545 551 598 693 L588 693 Q389 561 191 561 L163 608 Q307 608 664 807 Q712 892 712 1006 Q712 1042 683 1204 L617 1186 L617 1195 Q617 1254 664 1299 ZM1175 911 Q1167 911 1100 930 L1100 826 Q1100 798 1175 788 Q1257 808 1365 911 L1488 911 L1488 1063 L1478 1063 Q1380 1032 1194 911 L1175 911 ZM958 1034 Q958 993 844 873 L844 854 L873 854 Q910 854 995 836 Q1015 924 1015 978 L1015 1015 Q1000 1015 977 1034 L958 1034 ZM437 1034 L494 1034 Q494 949 551 949 Q663 1024 693 1024 L702 1024 L702 1015 Q563 788 503 788 Q437 940 437 1034 ZM1431 816 Q1431 757 1204 656 Q1204 642 1147 561 L1157 561 Q1196 561 1270 618 L1336 618 Q1336 661 1431 731 L1468 816 L1431 816 ZM1090 741 L1090 608 L1128 608 Q1166 623 1166 674 L1166 731 L1100 741 L1090 741 ZM1090 201 L1100 154 L1128 154 Q1346 282 1346 296 L1346 325 L1336 325 Q1240 277 1157 277 L1138 277 Q1190 372 1260 372 L1251 466 L1280 466 Q1326 428 1346 428 Q1473 484 1563 580 L1563 589 L1535 589 Q1380 589 1090 400 L1090 201 Z" /><glyph glyph-name="uni83DC" unicode="&#x83dc;" d="M1157 1624 L1166 1624 Q1317 1624 1317 1397 L1317 1388 L1365 1397 Q1525 1348 1525 1312 L1525 1284 L1516 1237 L1478 1237 L1279 1284 Q938 1002 938 991 L938 981 Q1111 1075 1137 1075 Q1229 1039 1270 981 Q900 915 673 839 Q560 844 560 867 L560 906 Q563 924 579 924 L740 924 Q862 924 1118 1369 Q1118 1379 1185 1539 Q1157 1591 1157 1624 ZM522 1530 Q768 1458 768 1397 Q785 1372 853 1217 Q844 1114 844 1038 L844 1000 L787 1000 Q674 1123 579 1123 Q478 1194 465 1237 L475 1237 L570 1208 L579 1208 Q614 1237 645 1237 Q601 1482 513 1482 L513 1511 L522 1530 ZM1203 924 Q1365 899 1365 877 L1365 849 Q1365 780 1109 584 L1109 565 L1118 565 Q1188 612 1345 612 L1525 612 Q1591 566 1591 508 Q1582 508 1582 499 L1100 517 Q1033 505 1033 451 L1033 442 Q1033 322 1223 224 Q1577 -84 1809 -97 Q1931 -187 1951 -221 L1951 -249 L1762 -249 Q1512 -249 1052 281 Q1036 291 1014 291 L1014 186 Q1014 120 995 120 Q1005 102 1005 92 Q1005 -4 1043 -372 Q1020 -429 986 -429 Q913 -400 835 -230 L929 -230 L929 224 L920 224 Q654 -59 286 -259 L248 -268 L248 -239 Q863 264 863 404 L863 442 Q863 451 825 470 Q745 420 371 356 Q340 376 324 376 L324 394 Q324 413 645 470 L645 499 Q601 565 560 744 Q551 744 551 754 L551 792 L560 792 Q712 792 778 517 L787 517 Q1089 517 1203 877 L1203 924 ZM863 839 L901 839 Q976 764 1014 764 L1014 612 L967 612 Q863 666 863 830 L863 839 Z" /><glyph glyph-name="uni852C" unicode="&#x852c;" d="M1223 1606 Q1345 1544 1345 1435 Q1345 1411 1251 1237 L1260 1237 Q1442 1275 1478 1275 L1487 1275 Q1676 1258 1676 1180 Q1645 1161 1620 1161 L1553 1161 Q1359 1161 1223 1189 Q1110 1040 995 972 L986 972 L986 981 Q1192 1287 1223 1606 ZM627 1435 L673 1435 Q831 1435 872 1000 Q882 1000 892 953 L844 943 Q793 943 693 1113 L380 887 Q313 887 248 1019 Q262 1057 276 1057 Q308 1038 333 1038 Q356 1038 664 1198 L664 1208 Q627 1412 627 1426 L627 1435 ZM1024 896 L1052 896 Q1136 896 1223 754 L1223 688 Q1353 762 1421 811 Q1529 776 1544 735 L1544 725 L1365 546 L1383 555 Q1582 475 1582 385 Q1582 360 1393 329 L1080 54 L1080 44 Q1164 101 1194 101 L1213 101 Q1276 54 1298 7 L1298 -69 Q1298 -173 1279 -249 Q1298 -283 1298 -324 Q1260 -344 1242 -344 Q1175 -315 1175 -249 L1175 -164 Q1175 -69 1203 44 L1175 44 Q1107 -16 958 -400 L910 -409 Q888 -387 835 -296 Q843 -223 1033 25 L1014 25 Q958 -13 929 -13 L920 -13 Q853 72 853 139 Q1141 390 1203 527 L1203 537 L872 281 L844 281 Q768 325 768 451 L768 470 Q790 470 825 499 L853 499 L882 480 Q1213 677 1213 688 L1203 688 Q1165 688 1043 659 L1043 669 Q1043 691 1071 745 Q1024 833 1024 896 ZM787 848 L806 848 Q853 825 853 773 Q853 694 579 423 L579 414 Q699 281 853 243 Q872 220 872 205 Q872 169 683 120 L664 -41 L683 -41 Q714 -41 787 -13 Q826 -26 844 -59 L844 -79 Q610 -146 456 -306 Q456 -357 408 -372 Q321 -349 267 -278 Q286 -18 314 139 Q419 117 419 73 Q408 -51 408 -126 L408 -173 L419 -173 Q534 -129 570 -31 Q588 40 588 101 L588 215 Q577 338 494 338 L362 262 L352 281 Q583 569 645 688 L636 688 Q408 574 342 555 Q257 588 257 650 L257 688 L324 679 Q753 848 787 848 ZM1326 517 Q1130 323 1100 224 L1118 224 Q1270 319 1393 423 Q1343 516 1326 517 ZM1393 252 L1431 252 Q1481 218 1525 149 L1525 -221 Q1597 -221 1828 -192 Q1929 -192 1951 -324 Q1951 -360 1591 -372 Q1393 -291 1393 -98 L1393 -3 Q1393 91 1402 224 Q1393 242 1393 252 Z" /><glyph glyph-name="uni8D77" unicode="&#x8d77;" d="M518 1511 L622 1511 Q681 1470 802 1246 Q817 1237 849 1237 L849 1180 Q727 1066 727 935 Q717 935 717 896 L717 868 Q735 868 793 887 Q845 871 868 840 L868 764 Q868 721 755 594 L764 594 Q780 594 878 603 Q992 549 992 452 Q951 356 622 121 Q613 121 613 112 L613 102 Q732 73 1303 -125 L2117 -210 L2117 -230 Q2117 -273 1928 -315 Q1918 -315 1899 -305 L1852 -315 Q1681 -296 1559 -296 L1294 -296 Q1210 -296 679 -31 Q485 16 357 17 Q343 17 272 -2 Q121 48 121 121 Q260 158 376 158 Q390 158 462 140 Q589 194 727 367 L727 386 Q570 272 499 272 Q465 272 433 395 Q499 502 499 537 L414 480 L367 490 L367 603 Q575 750 575 944 L575 982 Q323 783 272 783 Q83 878 83 982 Q560 1177 584 1246 L584 1341 Q584 1392 518 1511 ZM1445 1161 Q1536 1161 1597 1058 Q1559 895 1474 707 Q1540 701 1540 670 L1540 613 Q1313 493 1313 423 Q1168 112 1086 26 L1058 26 Q1038 107 1038 130 Q1190 585 1190 679 L1190 764 Q1193 783 1209 783 Q1252 783 1322 745 Q1417 910 1436 982 L1408 982 Q1316 906 1171 773 Q1020 773 1020 916 Q1138 925 1408 1152 Q1424 1161 1445 1161 ZM1531 386 Q1604 386 1767 168 L1767 121 Q1767 102 1748 102 L1739 102 Q1671 102 1474 168 L1474 225 L1502 225 L1502 244 Q1408 303 1408 348 L1417 348 Q1531 379 1531 386 Z" /><glyph glyph-name="uni9762" unicode="&#x9762;" d="M1602 1303 Q1659 1279 1659 1217 L1659 1180 Q1034 1123 1034 1018 Q1034 900 940 801 L958 801 Q1550 952 1678 952 L1725 952 Q1933 767 1933 640 Q1933 487 1753 92 Q1575 -107 1498 -107 Q1426 63 1309 63 L1290 63 L1290 25 Q1146 63 1110 63 Q886 63 571 -107 Q362 -30 362 139 Q325 393 268 593 L316 602 Q365 574 429 574 Q616 676 835 952 L855 1018 Q580 972 552 972 L485 981 Q436 972 372 972 Q325 1031 325 1113 L334 1113 Q344 1104 485 1095 Q1396 1303 1602 1303 ZM1271 177 Q1311 139 1365 139 Q1514 180 1573 280 Q1706 525 1706 763 Q1706 818 1621 848 Q1318 848 1318 659 Q1271 301 1271 177 ZM845 565 L845 527 Q1065 602 1138 602 L1148 602 L1148 687 L1110 687 Q938 687 845 565 ZM514 422 Q514 336 590 35 Q750 56 750 92 L750 120 Q703 120 703 139 L703 517 Q519 475 514 422 ZM845 347 L883 328 Q1129 370 1129 460 L1129 517 Q845 456 845 347 ZM864 205 L864 186 Q864 135 902 120 Q1120 162 1120 195 L1120 290 L1110 290 Q864 249 864 205 Z" /><glyph glyph-name="uni98DF" unicode="&#x98df;" d="M1015 1583 L1119 1583 Q1119 1557 1137 1526 Q1052 1502 1052 1479 L1052 1469 Q1165 1469 1980 921 Q2194 839 2226 798 L2226 779 L2160 779 Q1955 779 1299 1242 Q1087 1365 968 1365 L958 1365 Q945 1365 872 1204 Q690 914 59 249 Q0 220 -26 220 Q381 713 835 1327 L835 1384 L788 1384 Q788 1433 1015 1526 L1015 1583 ZM883 1166 Q1157 1166 1157 1015 L1147 1015 Q1130 1006 1109 1006 L1034 1006 Q872 1006 872 1157 Q883 1157 883 1166 ZM1213 967 Q1261 967 1327 883 L1204 419 Q1227 400 1251 400 L1251 391 Q1078 183 863 183 L844 183 Q826 107 826 3 L826 -158 L835 -158 Q1027 -23 1185 50 Q1185 65 1204 88 L1204 97 Q1119 119 1119 145 L1119 173 Q1184 173 1601 438 Q1629 438 1649 476 L1649 504 L1582 514 Q1582 481 1535 466 L1535 494 Q1568 551 1621 551 L1639 551 Q1790 440 1790 362 L1790 334 Q1790 304 1621 258 Q1556 268 1516 268 Q1375 268 1204 145 L1204 135 L1213 135 Q1231 135 1327 154 L1327 78 Q1696 -37 1696 -177 L1696 -300 L1649 -300 L1592 -205 Q1382 -1 1251 41 Q1006 -256 863 -385 L816 -385 Q706 -385 636 -187 Q695 -187 740 731 Q778 901 816 901 Q929 890 929 854 Q1125 967 1213 967 ZM986 703 Q938 722 911 722 L911 627 L920 627 Q1137 627 1137 722 Q1147 756 1147 826 L1147 845 L1119 845 Q1094 845 1062 722 Q986 715 986 703 ZM863 494 Q863 455 844 400 Q883 400 883 381 L883 362 L844 362 L844 315 L854 315 Q1071 363 1071 448 L1081 448 L1081 494 Q983 485 968 476 Q968 494 949 494 L863 494 Z" /><glyph glyph-name="uni9A6C" unicode="&#x9a6c;" d="M990 1290 L1015 1290 Q1298 1219 1298 1165 Q1215 706 1198 567 L1206 567 Q1477 634 1505 634 Q1701 634 1847 492 L1863 425 Q1863 210 1606 -198 Q1466 -305 1389 -315 Q1282 -315 1040 26 L1056 26 Q1271 -107 1381 -107 Q1553 -107 1639 326 Q1639 368 1647 451 Q1619 509 1530 509 L1457 509 Q1183 509 1114 367 Q1061 326 1031 326 L1024 326 L1024 393 L1015 393 L766 309 L766 317 Q749 361 733 467 Q849 831 849 999 L841 999 Q661 999 582 1065 L582 1099 Q766 1118 990 1290 ZM1031 1091 Q976 951 931 576 Q924 520 924 467 Q1074 467 1074 841 Q1082 841 1082 891 L1082 1024 Q1082 1085 1031 1091 ZM1398 350 Q1556 326 1556 250 Q1536 192 1505 192 Q1308 234 1264 234 L1181 234 Q970 234 466 -23 L400 -23 Q321 -23 275 43 L275 101 Q292 101 1398 350 Z" /><glyph glyph-name="uniFF0C" unicode="&#xff0c;" d="M796 266 Q807 263 807 263 Q874 246 892 184 Q892 184 897 169 L897 129 L893 121 Q878 24 806 -44 Q764 -84 640 -130 Q685 -71 697.5 -48.5 Q710 -26 725 11 Q642 16 618 99 Q618 99 614 105 L614 145 Q617 154 618 154 Q635 240 725 262 L742 266 L796 266 Z" /></font>
</defs>
</svg>
