<?xml version="1.0" standalone="no"?><!DOCTYPE svg PUBLIC "-//W3C//DTD SVG 1.1//EN" "http://www.w3.org/Graphics/SVG/1.1/DTD/svg11.dtd" ><svg xmlns="http://www.w3.org/2000/svg"><metadata></metadata><defs><font id="SentyPea" horiz-adv-x="2203"><font-face font-family="Senty Pea 新蒂绿豆体" font-weight="400" font-stretch="normal" units-per-em="2048" panose-1="3 0 6 0 0 0 0 0 0 0" ascent="2400" descent="-600" x-height="0" bbox="-668 -973 2103 1759" underline-thickness="150" underline-position="-217" unicode-range="U+0021-ff0c" /><missing-glyph horiz-adv-x="2199" d="M724 118 l0 1040 l750 0 l0 -1040 l-750 0 ZM782 176 l634 0 l0 924 l-634 0 l0 -924 Z" /><glyph glyph-name="uni4E00" unicode="&#x4e00;" d="M1692 763 q35 -19 54 -19 l0 -53 q0 -36 -682 -144 l0 18 q-254 -53 -521 -53 l-90 0 l0 35 q6 37 35 37 q18 -36 18 -55 l37 0 l0 71 q377 0 1149 163 Z" /><glyph glyph-name="uni4E0D" unicode="&#x4e0d;" d="M1288 1339 l18 -37 l0 -18 q-266 -417 -377 -540 l18 -35 l0 -18 q-73 0 -396 -394 q-139 -91 -179 -91 l-18 36 l0 55 q103 0 431 412 q230 265 359 504 q-313 -91 -556 -91 l-72 0 q-36 0 -36 36 l0 18 q267 0 808 163 ZM1020 691 l16 0 q49 0 90 -251 q-25 -503 -90 -503 l-16 0 q-37 0 -37 36 q37 308 37 503 l0 71 l-37 126 l37 18 ZM1270 529 q106 0 485 -305 q53 0 90 -71 l0 -18 q0 -37 -37 -37 l-35 0 q-193 90 -306 216 q-163 144 -268 144 l-37 0 l0 18 q18 53 108 53 Z" /><glyph glyph-name="uni4E2A" unicode="&#x4e2a;" d="M993 1428 l18 0 q53 -18 53 -108 q-40 -48 -71 -197 q184 0 430 -180 q429 -312 486 -413 l0 -18 q0 -25 -54 -53 q-199 106 -234 106 l0 37 l36 0 l0 36 q-508 378 -520 378 q-38 0 -181 53 q-186 -416 -574 -665 l-55 0 q-35 0 -35 37 l0 36 q163 0 522 520 q160 351 160 396 q-18 0 -18 17 l37 18 ZM1011 908 l53 0 q36 -6 36 -36 l-18 -36 q50 0 73 -180 l-18 0 q18 -35 18 -54 q53 -591 53 -683 l0 -54 l-90 -17 q-54 92 -54 179 l0 73 q6 36 36 36 q-36 140 -71 556 l17 0 q-35 59 -35 108 l0 108 Z" /><glyph glyph-name="uni4E39" unicode="&#x4e39;" d="M1316 1571 l91 0 q161 -76 161 -251 l0 -54 q0 -144 -55 -629 q18 0 18 -17 l162 71 l19 0 q0 -36 197 -71 l36 -55 l0 -18 l-18 -36 q-328 36 -414 36 l0 -71 q0 -41 -18 -72 q18 -32 18 -72 l-18 0 q36 -316 91 -575 l0 -53 l-91 0 q-88 319 -125 359 l54 0 q-17 179 -17 269 l0 126 l17 89 l-143 0 q-41 0 -73 -18 q-18 0 -18 18 l-89 -18 l-36 0 q-18 0 -18 18 q-144 0 -144 -179 q0 -120 -90 -432 l-90 0 l0 144 q36 0 90 360 q-19 0 -19 18 l-323 -72 l-142 0 q-29 0 -73 72 l0 35 l36 0 l55 -35 q484 103 484 162 q54 215 54 341 l0 90 l37 0 q0 117 -216 215 l0 36 q341 -69 341 -197 q149 -212 360 -288 l0 -18 q0 -35 -37 -35 l-36 0 q-169 0 -341 232 q0 -89 -18 -89 q0 -19 18 -19 q0 -15 -55 -286 q181 35 360 35 l126 0 l0 91 q0 18 18 18 l-18 35 q0 18 18 18 q0 18 -18 18 q23 184 54 215 l0 108 q0 75 17 197 q-24 96 -161 181 q-195 -54 -233 -54 l0 36 q0 41 215 71 Z" /><glyph glyph-name="uni4E3B" unicode="&#x4e3b;" d="M814 1472 l18 0 q537 -119 537 -161 l0 -18 q0 -35 -106 -72 q0 75 -323 143 l-126 90 l0 18 ZM1137 1059 l143 0 l89 -17 l0 -54 q0 -37 -35 -37 l-36 0 l0 37 q-606 -108 -645 -108 l-91 18 l0 35 q539 91 575 126 ZM940 862 l89 0 q108 -56 108 -197 l0 -198 l232 108 q31 18 91 18 l17 0 q36 -6 36 -36 q-60 -59 -359 -161 q-35 -17 -71 -413 l36 -18 l71 0 q502 0 502 -72 l0 -17 q0 -27 -53 -54 l-36 0 q-90 0 -90 54 q-18 0 -18 -18 l-179 18 l-233 0 l-72 -72 l-71 0 l0 35 l18 37 l-36 0 q-19 0 -305 -37 l-18 37 l0 53 q388 36 412 36 l0 72 q0 41 -18 72 q18 22 36 251 l-18 0 q-242 -126 -412 -126 q-83 35 -90 72 l0 17 q0 31 108 73 l18 -36 l0 -18 l-55 0 q6 -36 37 -36 l429 126 l0 89 q0 41 18 72 l-53 214 l-36 0 l-35 -17 l0 72 Z" /><glyph glyph-name="uni4E49" unicode="&#x4e49;" d="M1315 1329 l36 0 q0 -420 -251 -934 q354 -360 628 -360 q72 -36 72 -54 q0 -35 -54 -35 q-401 0 -539 197 q0 24 -198 180 q-134 -151 -431 -233 l-144 0 q-35 0 -35 35 l0 18 l53 0 q211 0 504 252 q-223 323 -413 323 l0 54 l106 0 q131 0 378 -270 q144 267 180 486 l-18 0 q-377 13 -377 107 l0 55 q59 0 162 -73 l71 0 l180 -18 q42 270 90 270 Z" /><glyph glyph-name="uni4E66" unicode="&#x4e66;" d="M875 1445 l35 0 q36 -5 36 -36 l0 -90 l-18 -35 l91 18 l179 0 q45 0 161 -36 l0 -126 q-395 -249 -395 -287 l0 -72 q447 107 700 107 q90 0 90 -107 q0 -67 -198 -287 q-122 -139 -341 -197 q-91 1 -233 107 l-18 0 l0 -16 q-7 -557 -71 -557 l-18 0 q-35 0 -35 35 q35 282 35 485 l0 90 q0 40 18 71 q-18 32 -18 72 q0 18 18 18 q-18 30 -18 90 q-246 -72 -395 -72 q-36 0 -36 36 q0 43 431 251 l0 233 l-18 36 l-90 -18 q-144 0 -144 108 l0 18 q113 -36 180 -36 q34 18 54 18 l0 71 l-17 90 l35 18 ZM875 1319 l0 -35 l35 0 q0 35 -35 35 ZM964 1193 l0 -214 l18 0 q239 179 269 179 l0 54 l-36 0 q-60 0 -89 -19 l-107 19 q-35 -19 -55 -19 ZM1395 1212 l18 0 q128 -15 251 -143 l0 -37 l-54 0 q-59 0 -215 108 l0 72 ZM696 763 l18 -35 l161 35 l0 72 l-18 0 q-130 -72 -161 -72 ZM964 709 q0 -286 90 -286 l91 -54 l35 0 q176 0 484 412 l0 18 q-185 0 -700 -90 Z" /><glyph glyph-name="uni4F59" unicode="&#x4f59;" d="M1181 1543 l53 -71 l0 -17 l-36 -55 q159 -7 789 -555 l0 -36 l-53 -37 q-159 51 -197 91 q18 34 18 53 q-191 126 -448 358 q-23 0 -144 55 q-294 -451 -861 -969 l-54 0 q-36 0 -36 36 l0 54 l36 0 l37 -18 q0 41 161 179 q591 666 591 736 l90 108 l-125 17 l-54 0 l0 36 l233 35 ZM1234 988 q73 -55 234 -72 l-18 -89 l-73 0 l0 36 l-88 -18 q35 -50 53 -234 q99 72 197 72 q0 36 -53 36 l0 35 l161 -35 l0 -54 q-175 -85 -305 -125 q18 -332 18 -485 l0 -17 q0 -162 -36 -305 l-108 0 q0 57 -161 179 q0 81 -53 161 l0 18 l251 -232 l18 0 l0 107 q0 180 -18 538 l-610 -144 l-18 36 l0 36 q227 72 609 144 l0 70 q0 42 -18 73 l18 35 l-36 91 q-89 -36 -322 -36 l-18 0 l0 107 l53 0 l0 -36 q305 23 305 108 l18 0 ZM1682 306 q108 0 144 -197 q-18 -35 -18 -54 l-35 0 q-50 0 -126 216 q6 35 35 35 ZM786 235 l18 0 q86 0 198 -108 l0 -36 l-18 0 q-50 55 -180 55 l-18 -37 l125 -107 l0 -19 l-89 -17 l-53 0 q-72 29 -72 125 l0 71 q0 26 89 73 Z" /><glyph glyph-name="uni51E0" unicode="&#x51e0;" d="M1092 1258 q162 -26 162 -163 q-109 -626 -109 -826 q33 -144 73 -144 q326 0 484 108 q0 47 -36 215 l54 0 q36 0 90 -215 q17 0 17 -18 l0 -54 q0 -48 -412 -126 q-63 -18 -179 -18 q-199 0 -199 360 l126 682 q-18 108 -53 108 l-36 0 q-95 0 -307 -18 l0 18 q0 54 325 91 ZM552 1024 q155 0 215 -198 q0 -451 -286 -772 l-90 0 l-18 71 l53 36 q0 -18 18 -18 q216 346 216 557 l-18 36 l18 108 q-49 126 -143 126 l0 18 q5 36 35 36 Z" /><glyph glyph-name="uni51FA" unicode="&#x51fa;" d="M1028 1454 l89 0 l0 -36 l-35 -54 l0 -36 q0 -125 17 -394 q144 48 216 143 l35 0 l-18 126 l0 53 q28 0 72 37 q18 0 18 -19 l36 19 q90 0 108 -72 q-40 -107 -90 -107 l0 -19 q0 -49 161 -376 l0 -18 q0 -35 -53 -35 q-104 58 -216 340 l-18 0 q-17 -41 -233 -161 q0 -278 36 -520 l-18 -37 q18 -35 18 -53 l-18 -108 l36 -18 l18 0 q196 107 196 126 q-35 65 -35 144 l0 53 l54 0 q24 0 90 -89 q0 -18 -18 -18 l232 -484 l-36 -19 q-88 0 -250 340 l-18 0 q-96 -77 -251 -124 q0 -28 -71 -72 l-18 0 q-19 0 -19 19 q-227 -131 -358 -163 q-111 0 -126 90 l19 90 q0 19 -19 54 q51 323 126 323 l18 0 q37 -6 37 -36 l0 -18 q-79 0 -91 -305 l0 -72 q6 -36 36 -36 q44 0 287 108 l-53 72 l0 17 l17 0 l90 -53 l17 0 l19 106 l-19 73 l19 71 q-36 223 -54 448 q18 0 18 18 l-36 18 q-295 -142 -358 -142 l0 18 l-36 -18 q-108 0 -108 88 q71 323 71 431 l37 0 l18 -90 l0 -89 q0 -153 -36 -234 q35 -18 54 -18 q25 0 376 144 q-18 357 -18 484 q36 0 36 90 ZM1422 1221 l0 -54 l18 0 q25 0 54 54 l-72 0 Z" /><glyph glyph-name="uni5343" unicode="&#x5343;" d="M1090 1437 q73 -14 73 -35 q18 0 18 18 q162 -18 162 -55 l0 -54 q-20 0 -54 -18 l-72 18 q-42 0 -306 -90 l-18 0 l0 18 q181 132 181 144 l-19 37 l35 17 ZM1234 1258 l55 0 q25 0 179 -252 l162 -18 q99 18 144 18 l17 -36 l0 -37 q0 -35 -448 -106 l-18 -37 l0 -107 q0 -118 18 -360 l-18 0 l18 -36 q0 -18 -18 -18 l18 -36 q0 -17 -18 -17 q0 -20 18 -55 q-14 -233 -36 -233 l18 -37 q0 -25 -54 -53 l-37 0 q-35 0 -35 35 q18 217 35 235 q-17 183 -17 287 l0 414 q-481 -144 -755 -144 q-26 0 -54 71 l144 0 q665 144 665 180 l0 198 l-18 125 l35 19 ZM1325 1132 l0 -216 q45 0 161 35 l0 19 q-52 0 -161 162 Z" /><glyph glyph-name="uni535A" unicode="&#x535a;" d="M1579 1702 l90 0 q188 -95 207 -143 q3 -36 -32 -36 q-80 0 -205 107 l2 -35 l-37 0 q-35 0 -39 53 q15 34 14 54 ZM1279 1665 q29 0 78 -106 l12 -144 q56 36 104 36 l55 0 l3 -36 q3 -40 -172 -89 l-9 -107 l4 -55 l18 0 q56 37 105 37 l106 0 q67 0 107 -215 l-4 -411 l159 35 l25 -71 q-213 -43 -206 -126 q1 -17 -88 -17 q62 -546 83 -805 l-36 -18 l-35 0 q-335 375 -406 375 q-218 50 -221 90 l-1 18 q2 36 32 36 l232 0 l89 18 l20 -36 l2 -18 q-132 -36 -141 -36 q169 -95 171 -125 q55 0 155 -143 l37 -18 l-1 18 q-1 15 -30 143 q-1 17 17 17 l-28 126 l-30 375 q-270 -114 -666 -178 q-35 0 -38 35 l-1 18 q-3 37 543 143 q10 35 155 73 l-21 35 q-6 75 22 179 q-71 0 -75 -179 l-18 0 q-36 0 -45 107 l-209 -71 l-53 0 l13 -162 l-72 0 q-26 99 -30 144 l10 340 q-1 13 -27 108 q73 214 179 214 l2 -36 l-47 -72 l2 -17 q157 40 152 107 l9 107 l-36 0 q-50 -36 -416 -144 l3 -35 l-19 0 q-25 0 -59 54 l-4 54 q475 143 526 143 l-20 250 q2 35 34 35 ZM505 1487 l36 0 q88 0 153 -125 q3 -36 -33 -36 l-19 0 q-4 54 -39 54 l-18 0 q42 -93 65 -375 l10 -126 q208 95 206 126 l-40 53 l-4 53 q79 -17 113 -89 l5 -54 q-7 -64 -275 -161 l12 -144 q3 -40 -11 -70 q1 -18 18 -18 q24 -882 -33 -913 l-36 0 q-44 0 -107 215 l9 108 l36 0 l5 -55 l36 0 q9 330 -12 591 l-3 36 q-1 18 17 18 q-1 18 -19 18 l10 89 l-5 72 l-54 0 q4 -48 -258 -126 l-21 35 q197 154 327 163 l-19 232 q-3 40 -23 71 q-2 18 16 18 l-57 268 q15 31 12 72 ZM1360 1094 l28 -126 q-18 0 -17 -18 q161 0 164 -36 l3 -35 l-108 0 q-35 -6 -32 -35 l5 -73 l17 0 q178 90 184 161 q-30 172 -50 197 q-24 0 -194 -35 ZM1081 1005 l8 -108 l-15 -36 l18 0 q191 63 189 89 l-9 108 l-191 -53 ZM1272 844 q2 -37 -33 -37 q-33 19 -74 19 l-31 -55 q18 0 20 -17 l-89 0 l10 -126 q22 0 225 90 l18 0 l-8 89 q-2 37 -38 37 ZM1530 736 l73 0 l-4 53 l-18 0 q-26 0 -51 -53 ZM1555 663 l10 -124 l36 0 q-4 54 8 124 l-54 0 Z" /><glyph glyph-name="uni53F6" unicode="&#x53f6;" d="M1431 1535 l36 0 q108 -73 108 -181 l0 -35 q0 -18 -18 -18 q26 -252 233 -252 q72 -35 72 -53 q-25 -78 -251 -162 l-36 0 l0 -537 q0 -302 -36 -557 l-54 0 l0 1059 l-18 0 q-520 -90 -520 -197 l-144 -73 l0 -17 l54 0 q271 108 305 108 l0 -18 q0 -97 -573 -234 q-135 248 -252 844 l18 0 q90 -33 90 -198 q107 0 484 54 q133 0 215 -125 l0 -109 l-36 0 l0 -35 q377 73 377 144 l0 214 l-89 359 l35 19 ZM1575 1049 l0 -124 l18 0 q58 35 90 35 l0 36 q-90 0 -90 53 l-18 0 ZM481 925 q53 -99 143 -413 l36 0 q395 254 395 413 q-14 0 -54 53 q-262 0 -520 -53 Z" /><glyph glyph-name="uni5446" unicode="&#x5446;" d="M760 1588 l53 0 q17 -130 35 -161 q232 18 270 36 q340 -43 340 -107 q0 -124 -287 -305 l0 -19 q198 0 198 -36 l0 -18 l-17 -35 l-73 17 l-89 -17 l0 -36 q36 -45 71 -216 l18 0 q67 40 197 73 q0 -18 19 -18 l0 71 l107 0 l0 -71 q-87 -83 -341 -126 q0 -11 18 -234 l-18 -161 q466 -63 466 -125 q36 -5 36 -37 l0 -17 q0 -36 -36 -36 q-76 0 -196 71 l-270 55 q0 -18 18 -18 l-18 -90 q0 -53 18 -53 q-29 -287 -71 -287 l-37 0 q-53 0 -71 251 l0 54 l71 0 l0 161 q-179 18 -179 35 q-231 -196 -286 -196 q-35 17 -55 17 l0 36 l144 90 q271 376 305 376 q32 18 71 18 l0 18 q0 37 -36 37 q-363 -144 -663 -199 l-35 55 l0 18 q113 126 250 126 q0 -37 -71 -37 l18 -36 q-18 0 -18 -18 q428 162 537 162 l0 72 q-21 179 -71 179 l-53 0 l18 -90 l0 -36 l-73 0 l-107 109 q0 136 -125 447 l-18 0 l36 251 ZM867 1337 l107 -323 l37 0 q0 37 124 108 l91 108 q0 35 108 53 l0 54 l-252 19 l-215 -19 ZM1153 459 l-124 -215 l18 0 l88 18 q35 -18 55 -18 q-19 55 -19 215 l-18 0 Z" /><glyph glyph-name="uni58A8" unicode="&#x58a8;" d="M1223 1592 q484 -35 491 -142 l3 -54 q20 -305 -387 -376 l-91 18 q-36 -47 -41 -179 l108 0 l105 18 q73 -26 75 -53 l2 -36 q-284 -23 -281 -72 l3 -53 q464 143 653 143 q35 -5 38 -37 l1 -18 q4 -66 -388 -88 l-191 -71 l-108 0 l3 -55 q84 0 155 -179 q46 -35 73 -35 l3 -36 q2 -37 -33 -37 q-107 0 -112 73 l-37 0 l1 -18 l24 -90 l-18 0 q20 -30 24 -89 q172 24 209 24 l50 -72 q-246 -31 -252 -60 l9 -143 l329 -15 q34 18 54 18 q73 -26 74 -53 q4 -54 -193 -54 l-634 -79 l-57 -3 l-108 0 l-6 89 q107 35 452 97 l-8 125 l-278 -63 l-120 51 q-4 51 392 103 l-20 35 q-6 287 35 287 q-10 82 -95 106 l-3 36 l-35 0 l-90 -18 l2 -18 l157 -214 l2 -18 q2 -37 -34 -37 l-36 0 q-36 6 -195 251 l-53 0 q-178 -35 -177 -53 q21 -126 141 -233 q2 -35 -35 -35 l-35 0 q-40 0 -178 268 l-88 -17 l-90 0 q-25 0 -56 53 q-2 25 49 53 l53 0 l92 -18 q-4 54 32 54 q60 0 91 -18 q401 72 461 72 l-6 89 l-17 0 l-248 -53 l-39 53 l-1 18 q264 90 316 90 l-10 161 q-83 -32 -195 -53 q-34 17 -54 17 l-5 71 q72 0 264 89 l-10 143 q-211 18 -307 55 l-1 18 q2 35 32 35 q203 -12 273 -53 q-8 126 8 143 l-36 18 q-374 -46 -372 -90 l161 -536 q-16 -35 -15 -54 l-35 0 q-55 0 -196 537 q-45 0 -98 143 q36 0 29 107 l36 0 q24 -1 76 -89 l567 106 ZM1159 1468 l2 -35 l35 0 l15 -234 q39 9 146 234 l73 0 l1 -19 q4 -65 -110 -250 l1 -18 q105 53 101 106 l71 0 l58 -35 l16 0 l59 197 q-58 72 -344 72 l-124 -18 ZM1378 1109 l1 -16 l73 0 l31 53 l-18 0 q-41 -37 -87 -37 ZM1752 573 l61 -89 l1 -18 l-10 -125 l-37 0 q-98 150 -135 178 q-3 36 120 54 Z" /><glyph glyph-name="uni5BA2" unicode="&#x5ba2;" d="M868 1542 l53 0 q304 -58 304 -180 l-18 0 q-237 43 -339 144 l0 36 ZM581 1291 l18 -36 q0 -54 -36 -144 q85 -428 143 -428 q250 375 250 428 l55 0 q35 -5 35 -35 q-130 -279 -340 -519 l-18 0 q-196 162 -196 680 l89 54 ZM1369 1255 l53 0 q18 0 18 -18 l36 18 q180 -20 180 -126 l0 -18 q0 -138 -252 -250 q0 -64 -143 -233 l0 -18 q86 0 304 -143 q287 -110 287 -142 l0 -37 q0 -35 -36 -35 l-17 0 q-52 0 -609 286 q-190 -229 -215 -233 l0 -35 l18 0 q58 35 107 35 l394 0 q136 0 162 -71 l0 -54 q0 -25 -216 -196 q161 0 161 -37 q0 -58 -447 -107 q18 -34 18 -54 q-18 -35 -18 -53 l-35 0 q-161 149 -233 501 q-279 -213 -466 -232 q-31 17 -71 17 l0 18 q0 24 250 108 q189 104 483 411 l0 18 l-303 35 q36 73 89 73 q143 0 304 -37 q0 17 179 269 l0 35 l-251 -53 l0 18 q0 64 304 126 l18 0 l18 -108 q143 102 143 196 q-58 37 -107 37 l-178 0 q-610 -25 -610 -143 l-53 0 l0 18 q0 214 734 214 ZM1064 217 l-53 -90 q108 -250 108 -268 l18 0 l0 18 q-18 35 -18 53 q239 74 429 269 l0 18 l-305 0 l-106 -18 q-32 18 -73 18 Z" /><glyph glyph-name="uni5C82" unicode="&#x5c82;" d="M938 1543 l90 0 q103 -323 250 -323 l0 -106 l126 -216 q0 -35 -35 -35 l-36 0 q-143 117 -143 214 l-18 0 q-29 -118 -502 -250 q-45 0 -143 -18 q-81 0 -144 124 q18 243 18 360 l35 0 q55 -19 55 -108 l0 -252 q0 -35 53 -35 q144 0 215 53 q18 0 18 -18 q184 91 233 91 l0 18 q0 113 -72 412 l0 89 ZM1028 1400 l0 -36 q54 -63 54 -287 q72 27 72 55 q-18 113 -126 268 ZM921 845 l143 0 q214 0 214 -73 l0 -53 q-151 -161 -250 -161 l0 -36 l54 0 l0 -36 q-245 -131 -502 -180 q-36 -281 -36 -376 l0 -36 q215 -53 323 -53 l143 0 q693 42 699 179 q-35 103 -53 340 l18 0 q65 0 143 -357 l0 -73 q-239 -197 -950 -197 q-431 34 -431 197 l0 36 q79 592 162 592 l107 0 l0 -18 q0 -36 -107 -54 l0 -72 l19 0 q350 141 555 323 l0 17 l-18 0 q-377 0 -556 -124 l-18 0 q-36 0 -36 35 q149 180 377 180 Z" /><glyph glyph-name="uni6027" unicode="&#x6027;" d="M1476 1362 l71 0 q108 -85 108 -160 q0 -67 -143 -199 q-36 -106 -36 -464 q0 -22 197 -89 l53 -107 q-157 -217 -393 -305 l0 -18 l17 0 q224 36 376 36 l71 0 q37 -5 37 -36 q0 -35 -216 -70 q-34 16 -53 16 q-172 -35 -250 -35 l0 19 l-35 -19 q-19 0 -19 19 l-36 -19 l-126 19 l0 53 q0 30 216 89 l18 35 q-37 114 -37 143 l37 0 l0 -35 l35 0 l0 161 l-107 0 q-54 0 -54 -18 l-90 18 l-177 0 l0 54 q0 54 410 54 q36 101 36 393 q-156 -108 -232 -108 l-37 0 q-124 0 -124 126 l0 18 l18 35 l-18 0 q0 -27 -214 -161 q-55 -458 -55 -822 l-18 -72 l-71 0 l0 143 q0 208 18 662 l18 0 q-18 35 -18 53 q-214 -125 -251 -125 l-36 55 l0 35 q53 0 90 71 q-90 189 -90 233 l0 107 q0 25 90 90 q36 -6 36 -35 q-26 0 -53 -55 l0 -18 l71 -322 q179 37 179 90 l0 143 q0 130 71 286 l54 0 q107 -89 107 -197 l-36 0 q-36 0 -36 73 l-35 0 l-35 -287 l17 0 q140 58 160 125 q-35 58 -35 89 l19 0 q71 -24 71 -89 l18 0 q22 179 70 179 l37 0 q0 -35 -37 -340 l108 0 q215 110 215 215 q0 109 54 268 ZM1530 1272 q-18 -135 -36 -178 l36 0 q0 41 70 108 q-26 70 -53 70 l-17 0 ZM1457 396 l0 -126 l-17 -88 l17 0 q161 112 161 178 l-18 0 q-91 36 -143 36 Z" /><glyph glyph-name="uni60F3" unicode="&#x60f3;" d="M671 1524 l71 0 q9 -80 84 -161 l-11 -90 q26 -97 34 -196 q159 30 153 107 l17 0 q41 -44 43 -72 q33 18 52 18 l-10 125 q-4 41 12 73 q-21 30 -24 70 l-1 18 q3 36 33 36 l18 0 q17 0 60 -71 q248 89 278 89 q62 -99 82 -340 l3 -716 l-72 0 q-40 0 -86 179 q19 0 17 18 l-37 0 q-172 -67 -169 -107 l4 -54 l-54 0 l-56 36 q-33 -17 -52 -17 l-21 35 l-3 36 q72 0 68 53 l-26 90 q16 31 13 71 q-37 0 -40 36 l-3 37 q43 0 62 124 q-9 48 -96 90 l-2 18 q-125 -54 -157 -54 l8 -108 l55 0 l5 -53 q-84 -84 -69 -269 l17 0 l89 18 l4 -53 q-124 -13 -122 -36 q1 -18 19 -18 q-17 -233 -70 -233 l-18 0 q-3 37 -22 37 l21 196 q-18 0 -19 18 l-36 -18 l-108 18 q-102 -72 -155 -72 l-20 37 l-2 17 l332 323 l-14 177 q-55 -35 -403 -124 q-35 18 -54 18 l-3 35 q246 90 472 144 q-25 88 -66 375 q-55 0 -60 72 l35 18 ZM1210 1273 l10 -126 l106 0 l129 -35 l-20 251 q-228 -52 -225 -90 ZM1208 1059 q-5 -157 -3 -179 l193 53 q37 -18 55 -18 l15 36 l-7 90 l-181 18 l-72 0 ZM1188 646 l21 -35 q86 54 209 72 q34 -125 63 -125 l-22 286 q-286 0 -271 -198 ZM658 558 l108 0 l10 107 l-18 0 q-26 0 -100 -107 ZM994 611 l36 0 l3 -36 l-36 0 l-3 36 ZM877 290 l35 0 l14 -180 q84 -268 399 -268 q69 35 103 35 l-2 18 q-8 108 -133 108 q-132 86 -138 161 q-2 25 50 53 l18 0 q89 -40 172 -143 l34 18 l37 0 l1 -18 q3 -40 -13 -71 q41 -58 45 -108 l3 -36 q6 -66 -207 -107 q-331 0 -450 269 l-28 125 q22 144 60 144 ZM1633 235 l89 0 q209 -163 219 -285 l-17 0 q-104 0 -267 214 q-21 31 -24 71 ZM527 182 l2 -18 q-26 -127 -25 -143 l5 -55 q20 -107 62 -107 q30 0 104 36 l21 -36 q-63 -107 -134 -107 q-129 34 -148 269 q14 161 113 161 Z" /><glyph glyph-name="uni620F" unicode="&#x620f;" d="M1290 1381 l91 0 q35 -6 37 -35 l2 -18 q-89 0 -86 -37 l3 -36 q7 -88 39 -269 q10 0 175 55 l1 -18 q225 88 224 107 l-2 19 q-71 0 -169 106 l-107 0 l-3 36 q-2 26 49 55 q174 0 267 -197 l89 0 l5 -55 q3 -43 -383 -143 q-69 -35 -122 -35 l8 -107 q79 -323 114 -323 q38 152 144 232 l-21 36 q-3 28 66 72 l35 0 l6 -72 q-123 -250 -220 -393 l2 -18 q50 0 88 -197 l2 -17 l35 0 l-20 35 q0 142 42 142 q49 -152 58 -268 l-19 0 q43 -73 46 -108 l-53 -35 l-18 0 q-75 0 -244 376 q-54 0 -49 -54 l-180 0 q-24 0 -96 89 l-3 37 q93 -53 130 -53 q158 36 151 124 l-101 358 l-8 108 l-406 -71 l-20 35 q-5 54 366 107 q-2 19 34 19 l-32 179 l-1 18 q-17 214 54 214 ZM872 1238 l36 0 l3 -36 q4 -56 -204 -572 q337 -187 345 -287 l-37 0 q-58 0 -357 215 q-124 -350 -257 -359 l-18 0 q-25 0 -97 91 l-6 71 l18 0 q86 -90 97 -90 q176 257 169 340 q-37 0 -276 90 q-35 0 -38 35 q34 18 52 18 q66 0 310 -71 q84 226 182 411 l-18 0 q-148 -108 -332 -108 l-21 37 q-5 60 277 126 q109 89 172 89 Z" /><glyph glyph-name="uni6210" unicode="&#x6210;" d="M823 1332 l41 0 q27 0 239 -272 q150 0 151 -41 q-50 -149 -50 -163 l312 -450 q221 392 261 409 l1 -27 q-165 -420 -205 -477 q147 -239 185 -259 l-1 28 q-8 272 33 272 l94 -422 q-17 -82 -80 -82 q-123 75 -295 327 l-13 0 q-66 -191 -145 -191 l-28 41 q10 136 8 204 l27 0 q2 -81 29 -81 q0 17 65 136 q-286 472 -287 504 l-13 0 q-136 -101 -160 -150 l14 0 q40 27 149 41 q68 -16 71 -109 q-142 -518 -353 -518 q-96 0 -145 313 l-14 0 l-68 -13 l-28 41 l-1 27 l79 95 l-6 218 l27 0 l6 -190 q227 230 371 354 q-34 81 -57 81 q-316 -81 -497 -218 l19 -217 q17 -586 -106 -586 l-27 0 q-220 71 -230 422 l0 14 q-5 158 221 367 l-46 191 l-1 14 q4 27 27 27 l41 0 q42 -13 99 -150 q166 109 471 204 q-75 147 -184 245 l-13 0 l0 -27 l-27 0 l0 14 q19 54 39 54 ZM1436 1332 q82 -27 83 -54 l1 -14 q0 -27 -27 -27 l-14 0 q-56 0 -150 14 q-26 -14 -40 -14 l-15 27 q-1 55 162 68 ZM263 406 l1 -13 q5 -194 144 -286 l14 0 q8 184 6 272 l-8 286 q-159 -157 -157 -259 ZM754 379 q4 -125 116 -245 l28 0 q251 256 246 449 l-1 14 q-346 -126 -389 -218 Z" /><glyph glyph-name="uni6512" unicode="&#x6512;" d="M1091 1549 l17 0 q156 -116 161 -161 q3 -28 -124 -196 q10 -97 -59 -126 l-35 0 l-1 18 q29 58 25 90 l-18 0 q-111 -54 -155 -54 q-107 0 -115 72 q-11 109 64 250 l54 0 l6 -54 q-24 -40 -53 -178 l108 0 q73 53 119 53 q-2 18 -21 18 l6 125 l-2 18 l-28 90 l51 35 ZM1612 1532 l35 0 q37 -6 40 -36 l3 -36 q-104 -20 -93 -125 q103 36 93 125 l54 0 l8 -72 l-211 -214 l17 0 q70 36 123 36 l7 -73 q-60 -100 -56 -142 q33 -72 60 -72 q124 37 141 37 l90 0 l1 -19 q7 -60 -259 -89 q-73 0 -84 108 l-17 0 q-224 -234 -370 -234 q-55 18 -64 108 l-10 89 l-37 0 q-86 -193 -81 -232 l-36 0 q-36 0 -42 53 q47 131 87 197 q-18 0 -19 19 q-114 -55 -245 -55 q-50 0 -112 36 q4 -36 -65 -71 q6 -54 -11 -54 l48 -125 q-29 -65 -21 -144 l17 0 l52 36 l2 -18 q-102 -59 -66 -411 q4 -195 -17 -340 l-55 0 q-35 0 -39 35 l-19 179 l18 0 l37 -18 l-2 18 q-13 313 -21 394 l-201 -144 l-18 0 q-36 0 -39 37 l-6 53 q276 104 267 197 q11 67 1 161 l-11 108 l14 36 l-54 0 l-50 -36 l-54 0 l-2 18 q-4 34 134 89 q31 42 20 322 q18 0 16 18 q-43 73 -47 107 l36 0 q28 0 79 -72 l-1 -340 l37 0 l-6 54 q53 0 146 -35 q50 0 155 53 q291 -33 300 -125 q-14 -31 -10 -71 q10 -36 40 -36 q81 10 313 250 l-1 18 l-18 0 q-56 -36 -104 -36 q-36 0 -39 36 l78 108 q-115 0 -131 53 l-6 53 q-10 96 88 198 l36 0 l2 -17 q4 -46 -52 -198 l38 -18 l36 0 l133 269 ZM1157 1424 l-8 -89 l18 0 q36 0 32 36 l-2 17 q-4 36 -40 36 ZM1640 744 q47 -110 51 -143 q-41 -139 -3 -501 l-33 -18 l-36 0 q-2 18 -23 54 q-8 411 16 519 l-53 0 q-272 -135 -256 -287 l-54 0 l-4 36 q-18 178 307 322 l88 18 ZM1184 655 l17 0 q8 -78 6 -395 l2 -17 l18 0 l-4 35 l35 0 q-7 -196 -69 -196 l-18 0 q-35 0 -41 54 q-15 519 54 519 ZM1464 547 l53 0 l10 -88 q43 -420 -242 -610 l-72 0 l-5 54 q287 168 243 591 q19 0 13 53 ZM1480 46 l18 0 q138 0 302 -322 l2 -18 q-103 0 -217 197 q-22 0 -102 107 l-3 36 Z" /><glyph glyph-name="uni662F" unicode="&#x662f;" d="M1122 1534 q95 0 124 -179 q45 -509 -60 -537 l3 -36 l-35 0 q-41 0 -73 18 q-103 -53 -263 -72 l-40 54 q30 59 26 107 l-7 73 q-25 281 -68 375 l14 36 q-44 91 -47 125 l18 0 l96 -71 q-6 60 312 107 ZM814 1373 q55 -225 58 -250 q121 53 245 71 q9 -36 39 -36 l14 36 l-19 215 q-3 36 -39 36 l-35 0 q-44 0 -263 -72 ZM878 1050 l6 -70 l1 -180 l16 0 q281 64 264 250 l-6 73 q-20 0 -281 -73 ZM1246 765 q35 -6 38 -37 q121 37 423 66 l4 -53 q-461 -29 -446 -192 q11 -119 -12 -285 l19 0 q212 121 301 232 l19 0 l4 -53 q-168 -209 -420 -305 l-41 54 q37 186 50 430 l-36 17 q-136 -82 -130 -143 l-88 -215 l3 -35 q31 0 307 -251 q192 -197 555 -197 q72 0 75 -36 l2 -17 q-32 0 -87 -37 q-18 0 -20 19 l-123 -19 l-18 0 q-290 0 -430 216 q-68 0 -290 232 l-2 18 l-36 0 q-103 -305 -329 -305 q-93 0 -152 90 l-5 53 l36 0 l78 -70 l36 0 q128 0 277 304 l-151 89 l-34 -18 q-33 18 -74 18 l-2 18 q-1 25 84 72 l18 0 q4 -46 204 -90 l-2 18 q92 119 124 233 q-427 -161 -595 -161 l-36 0 l-5 53 q913 215 907 287 Z" /><glyph glyph-name="uni67D3" unicode="&#x67d3;" d="M1019 1587 l54 0 q-18 -95 -18 -108 q18 -53 35 -53 q285 53 340 53 l19 0 q27 0 71 -71 l0 -37 q0 -129 -179 -358 q0 -28 -35 -71 l0 -35 l35 0 q313 71 466 142 l0 54 l-18 36 l36 18 q35 -6 35 -36 l0 -72 q-201 -232 -609 -232 q-35 58 -35 108 q0 72 178 320 q36 90 36 144 q-18 0 -53 19 q-94 -37 -233 -55 l0 18 q-34 -18 -54 -18 q37 -123 37 -214 l0 -126 q0 -81 -72 -161 q35 -322 72 -322 q75 54 179 54 l0 -36 q-197 -37 -197 -142 q0 -108 142 -108 q149 -85 377 -179 q53 -42 53 -55 l0 -35 q0 -36 -35 -36 q-305 132 -502 251 l-17 0 l0 -501 q0 -26 -54 -54 q-60 25 -107 143 q-27 0 -55 55 l0 142 l-18 126 l-35 0 q-173 -197 -322 -197 l-36 0 l0 71 l18 0 q18 0 18 -18 q287 166 287 358 q17 0 17 19 q-39 -37 -375 -90 l-18 35 q123 48 464 143 q0 18 18 18 q19 0 19 -18 l71 36 q0 79 -71 358 l18 0 q71 0 71 90 l0 179 q0 214 -108 214 l0 55 l54 0 l-17 89 l0 35 q0 26 53 55 ZM447 1353 l71 0 q59 0 90 -17 l107 17 l72 0 q36 -5 36 -35 l0 -18 q0 -36 -54 -36 q-19 0 -19 18 l-89 -18 q-27 0 -251 18 l0 36 q6 35 37 35 ZM410 1013 l19 0 q0 -18 18 -53 q98 18 142 18 q143 -33 143 -71 l-17 -37 l-90 18 l-107 0 l-89 -18 l0 18 l-37 -18 q-34 18 -53 18 l0 90 q28 0 71 35 ZM858 888 l18 0 l0 -54 q-187 -253 -251 -267 q-31 -19 -71 -19 l-54 0 l0 72 q92 0 287 214 l71 54 ZM966 441 l0 -108 q0 -59 -55 -125 q0 -147 108 -286 l0 -35 l18 0 l0 250 q0 94 -18 304 l-53 0 Z" /><glyph glyph-name="uni6CFC" unicode="&#x6cfc;" d="M1628 1452 l35 0 q96 0 216 -161 l0 -18 l-19 0 q-42 0 -161 72 q-31 17 -71 17 l0 90 ZM1555 1345 l19 0 q197 -201 197 -251 q-93 -93 -358 -250 l-215 -519 l19 0 q179 285 411 285 l35 0 q29 0 73 -70 l0 -54 q0 -57 -108 -322 q119 -66 304 -269 q-18 -30 -18 -71 q-69 0 -286 215 l-54 35 l-19 0 q-244 -250 -375 -250 l-53 0 q-108 0 -108 71 l-18 0 q0 -53 -35 -53 l-36 0 q-36 0 -36 35 l0 18 q161 317 161 340 q-17 35 -17 55 q61 0 179 356 l71 126 l-18 0 q-260 -126 -340 -126 l-18 0 q-90 43 -90 108 q0 120 251 448 l36 0 l0 -55 q-179 -348 -179 -393 l0 -18 q429 110 429 250 l126 340 q31 19 70 19 ZM1449 951 q227 111 250 178 q-89 47 -89 126 l-36 0 q-35 0 -125 -304 ZM483 1147 q257 0 304 -106 l0 -18 q0 -37 -36 -37 q-52 48 -304 90 l-18 35 q0 36 54 36 ZM716 718 l18 0 l0 -53 l-18 0 q-55 0 -305 -55 l-108 0 q-35 0 -35 36 q0 49 448 72 ZM1252 343 q0 -30 287 -108 q89 166 89 269 l-18 36 q-96 -15 -340 -197 l-18 0 ZM1180 253 q0 -36 -107 -232 l-18 -90 l54 -36 q166 0 340 232 l0 37 q-18 0 -251 89 l-18 0 ZM698 253 l18 0 l0 -53 q-29 0 -233 -234 l-125 -106 l-19 0 q-25 0 -53 53 l0 18 q1 19 286 215 q0 43 126 107 Z" /><glyph glyph-name="uni70B9" unicode="&#x70b9;" d="M1001 1416 l54 0 q53 -12 53 -143 l0 -90 q0 -135 -88 -197 q-37 0 -37 37 l0 35 q37 51 72 232 l-54 108 l0 18 ZM1627 1326 l36 -53 l0 -18 q-138 -54 -447 -108 l-17 0 l0 19 q144 98 428 160 ZM822 1040 l54 0 q-19 -98 -19 -143 q19 -35 19 -53 q182 71 323 71 q138 0 250 -108 q0 -144 -305 -340 l18 0 q67 32 251 54 q71 -27 71 -54 q0 -21 -322 -89 q-65 0 -232 -53 q-126 286 -126 411 l-53 -36 l-18 0 q-36 0 -36 36 l0 53 q85 0 107 126 l-17 35 l0 18 q35 44 35 72 ZM894 736 q54 -250 89 -250 q169 67 358 285 l-142 55 q-305 -42 -305 -90 ZM429 235 l72 0 l0 -73 q47 -232 160 -232 l0 -53 q-19 0 -54 -18 q-132 0 -196 250 l0 37 l18 89 ZM1682 235 l71 0 q36 -125 36 -215 l0 -72 l-36 0 q-28 0 -71 72 l0 215 ZM948 217 l53 0 q22 -179 90 -179 l0 -90 l-90 -18 q-53 67 -89 251 q6 36 36 36 ZM1270 217 l36 0 l143 -161 l17 0 l0 -36 q0 -35 -35 -35 l-54 0 q-143 124 -143 214 l36 18 Z" /><glyph glyph-name="uni72C2" unicode="&#x72c2;" d="M764 1301 l54 0 l2 -18 q-31 -120 -129 -252 l2 -17 q167 -179 214 -538 l-13 -36 l18 0 l79 72 l36 0 l5 -36 l-29 -53 l36 0 q47 40 271 124 q22 449 66 449 l37 0 q12 -91 48 -91 q-64 -65 -33 -303 l19 0 q153 61 149 89 q-19 0 -21 18 l35 17 q146 -17 150 -53 l5 -36 q-364 -110 -350 -214 q11 -87 2 -288 l18 0 l177 18 q256 -35 260 -72 l7 -54 q-334 18 -486 18 l-65 -53 l-89 0 l-27 71 q161 0 123 287 l-11 90 l-54 0 q-42 -57 -307 -126 l-71 0 q-34 -229 -153 -340 l-108 0 q-27 0 -104 107 l-21 163 q-54 0 -58 35 l-10 71 q90 0 249 431 q18 0 16 18 l-2 18 l-188 -73 q-37 19 -55 19 l-3 18 q-4 35 93 250 q-207 69 -210 91 l-2 18 q19 0 52 17 q163 -53 239 -53 q81 155 137 197 ZM1235 1122 l74 -18 q9 0 70 18 q183 -33 189 -73 l6 -53 q3 -23 -96 -91 l-17 0 l-2 19 l5 90 q-245 35 -362 35 q-33 -18 -53 -18 l-22 37 l34 18 q18 0 20 -18 q105 54 154 54 ZM573 835 l17 0 q56 35 86 35 l-7 54 l-18 0 q-46 -11 -78 -89 ZM553 297 q8 -62 85 -234 l53 0 q145 259 118 467 l-23 179 l-16 0 q-30 0 -109 -269 l-108 -143 Z" /><glyph glyph-name="uni7406" unicode="&#x7406;" d="M1100 1362 l36 0 q53 0 53 -90 l430 73 q268 -23 268 -161 q-80 -260 -144 -269 l18 -89 l0 -19 q0 -25 -250 -179 l0 -196 q0 -126 162 -126 l53 -71 l0 -36 q-32 -73 -197 -143 l0 -18 l322 0 q36 0 36 -53 q-18 -35 -18 -54 l-126 17 l-70 0 q-28 0 -431 -35 l-53 0 q-35 0 -35 35 l0 18 q0 45 214 72 q0 161 -214 161 q-54 0 -54 36 q18 34 18 53 l89 0 q197 55 216 55 l0 250 l-90 -18 l-73 0 l0 18 l19 90 l-54 0 q-101 -148 -466 -537 l-18 -126 l-53 0 q-53 18 -53 107 l0 72 q0 99 -18 250 q18 30 18 90 l-36 18 q0 -45 -178 -90 l-37 0 q0 107 198 143 q0 18 53 36 l-18 72 q0 13 18 108 l-18 35 q23 179 107 179 q72 -27 72 -54 l0 -18 q-90 0 -90 -107 l0 -178 q235 143 269 143 l-72 71 l54 0 q107 -11 107 -53 l0 -18 q-184 -186 -358 -233 l0 -358 l18 0 l483 483 q-71 317 -107 644 ZM1225 1184 q15 -156 54 -162 q144 36 144 72 q26 72 53 72 q214 -120 214 -180 l18 0 q72 166 72 198 l0 17 q0 36 -161 53 q-46 0 -394 -70 ZM759 1166 l144 0 q107 -11 107 -55 l0 -17 q0 -36 -35 -36 q-36 0 -36 36 l-36 -18 l-107 0 q-347 -90 -483 -90 l0 36 q0 49 393 125 q0 19 53 19 ZM1279 950 l0 -53 q36 -121 36 -197 q22 0 108 107 q0 22 17 179 q-17 0 -17 17 q-102 -53 -144 -53 ZM1511 718 q177 94 179 126 l-17 0 q-162 0 -162 -126 ZM1333 235 l0 -18 q0 -24 90 -90 l0 125 l-90 -17 ZM1511 235 l0 -126 l18 0 q0 23 108 90 q0 36 -37 36 l-89 0 Z" /><glyph glyph-name="uni75D5" unicode="&#x75d5;" d="M1016 1577 l71 0 q219 -40 221 -70 l2 -18 q3 -37 -34 -37 q-93 0 -309 72 q-2 26 49 53 ZM1454 1470 l21 -36 l2 -18 q2 -29 -525 -160 q-89 0 -69 -250 q-41 -154 -121 -950 q-82 -357 -151 -357 l-90 0 l-113 88 q-4 90 29 90 q23 0 114 -107 l18 0 q124 376 227 1414 l-1 18 l-213 -18 q-3 36 -57 36 l-2 36 q236 18 401 125 l18 0 l74 -36 q388 125 438 125 ZM1535 1130 l107 0 q36 -6 39 -36 l1 -18 q8 -103 -149 -357 l1 -18 q112 -63 114 -90 q-45 -163 -530 -305 q-3 -413 1 -464 q20 -35 22 -55 q32 0 372 269 l18 0 l-2 18 q-2 23 -278 126 l-6 71 l72 0 q325 54 577 179 q35 -18 54 -18 l3 -36 q-259 -257 -263 -286 l324 -250 l3 -36 q3 -37 -50 -37 q-99 46 -360 251 q-359 -339 -457 -339 l-53 0 q-26 0 -59 53 l-4 54 q-13 152 -21 482 q-36 0 -39 37 q103 67 72 447 q-10 131 186 143 l4 -53 q-90 0 -87 -36 q9 -36 40 -36 q17 0 15 17 l271 -35 l121 286 l-18 0 q-401 -143 -615 -143 l-21 36 l-2 19 q61 0 597 160 ZM503 844 q161 0 171 -125 l1 -18 l-37 0 q-82 53 -165 53 l-35 -17 l-36 17 l-89 -17 l-6 70 q171 37 196 37 ZM1139 719 l18 -232 q168 99 250 232 l-17 0 l-72 -18 q-94 18 -179 18 ZM1214 450 l1 -18 l53 0 q35 33 206 108 q-3 41 87 53 l-2 18 q-2 26 -59 54 q-100 -124 -286 -215 ZM673 487 q-186 -235 -336 -269 q-37 18 -55 18 l-5 70 q38 0 343 181 l53 0 ZM1463 236 q3 -36 185 -72 q-2 18 148 161 l-18 0 q-143 -89 -315 -89 Z" /><glyph glyph-name="uni7684" unicode="&#x7684;" d="M1620 1524 l36 0 l17 -72 q-47 -18 -233 -501 l-18 -72 q20 0 55 -18 q352 162 429 162 q72 -28 72 -55 l0 -107 q0 -228 -54 -573 l0 -71 q0 -18 -18 -18 q0 -18 18 -18 q-36 -430 -107 -430 l-53 0 q0 51 -108 215 q-141 322 -305 322 q0 41 -90 54 l0 89 l126 18 l196 0 l0 -18 q-18 -35 -18 -53 l-161 0 l0 -18 q205 -181 323 -377 q37 0 37 -53 q49 0 106 788 q36 0 36 179 l0 54 l-18 0 q-41 0 -340 -161 q-31 -18 -71 -18 l-55 0 q-24 0 -89 89 l0 18 q0 163 179 502 q83 143 108 143 ZM921 1328 l54 0 q0 -55 53 -55 l0 -36 q-79 -125 -107 -125 q-25 0 -54 -53 q269 0 269 -144 q0 -85 18 -179 q-72 -213 -72 -537 l0 -108 q0 -36 -54 -36 q-64 0 -107 215 l35 0 l0 -35 l19 0 q0 22 18 178 l0 18 l-18 0 q0 -40 -322 -358 q-116 -53 -181 -53 l-16 0 l0 35 q0 39 215 180 l0 17 q-55 18 -55 108 l0 18 l19 35 q-108 0 -108 54 l0 72 q82 36 126 36 l0 179 l-37 -18 l0 54 l19 36 q-19 0 -19 18 l-376 -287 l-18 0 q0 74 126 179 q298 319 537 537 q0 55 36 55 ZM671 897 q70 -75 70 -143 l0 -144 q160 18 199 18 q16 -31 16 -71 l37 0 q35 121 71 394 l-124 17 l-73 0 l-90 -71 l-18 0 l0 36 l37 53 l-19 0 q-73 -24 -106 -89 ZM724 504 l0 -18 l35 0 l-35 -55 l0 -143 q108 86 232 251 l-16 0 l0 -17 l-37 17 q-35 0 -179 -35 Z" /><glyph glyph-name="uni77E5" unicode="&#x77e5;" d="M527 1399 l18 0 q25 0 54 -53 l0 -125 q-42 -305 -91 -305 l0 -36 l37 0 q283 108 411 108 l55 0 q36 0 36 -54 q-22 -72 -126 -180 l17 0 l36 18 q0 -18 18 -18 q-54 -88 -54 -143 l0 -18 l36 0 q108 55 108 108 l54 0 q35 -5 35 -35 l0 -18 q-50 -90 -286 -179 q0 -20 -72 -252 l37 0 q159 0 465 -125 l17 37 l-17 106 q36 0 36 36 q-72 153 -108 430 l36 18 l36 -18 q0 31 430 53 q358 -28 358 -106 q-12 -104 -376 -305 l0 -18 q93 0 143 -90 l0 -35 q0 -36 -35 -36 q-225 89 -287 89 l0 72 q9 49 376 286 l0 19 l-250 18 q-287 -18 -305 -37 l18 -89 q0 -18 -18 -18 q67 -236 124 -304 l0 -36 q0 -26 -53 -54 l-53 37 l18 -37 l0 -36 q0 -35 -108 -71 l-502 161 q-147 -287 -268 -287 q-36 0 -36 89 q137 0 286 449 l-17 0 q-461 -233 -645 -233 l-18 35 l0 18 q90 61 90 90 l71 0 l0 -35 l-35 0 l0 -19 l71 0 q0 44 322 161 q215 90 215 126 q0 67 54 143 l0 18 q-251 -168 -251 -197 l-53 0 l0 18 q0 45 269 232 q79 92 88 144 l-17 0 q-157 -32 -340 -126 l-73 0 q-93 0 -107 55 q0 17 18 17 l-18 36 q82 131 144 393 q-18 33 -18 73 l0 35 ZM347 415 l37 0 l0 -36 l-37 0 l0 36 Z" /><glyph glyph-name="uni77F3" unicode="&#x77f3;" d="M1531 1311 l35 -55 q-196 -173 -539 -537 l-18 0 q42 -108 73 -108 q6 35 35 35 q19 0 54 -18 q347 73 628 91 q53 -59 53 -91 q0 -105 -250 -358 q71 0 71 -35 l0 -54 l-18 0 q-66 0 -429 -90 q0 18 -18 18 l0 -18 l18 -108 l-37 -18 l-36 0 q-42 0 -162 610 l0 90 l-35 0 q-114 -164 -431 -412 q-89 -72 -144 -72 q-35 0 -35 36 q196 116 502 448 q154 118 484 485 l0 18 q-358 -109 -520 -126 q-214 40 -214 179 l0 35 q5 37 35 37 q107 -161 197 -161 q74 0 701 179 ZM1153 558 l-36 0 l-35 17 l0 -17 q0 -39 89 -377 q37 36 251 72 q247 197 323 375 l-18 0 q-331 -70 -574 -70 Z" /><glyph glyph-name="uni7B14" unicode="&#x7b14;" d="M1253 1524 l36 0 l0 -18 q-36 -175 -36 -198 l18 0 q48 0 179 90 q77 1 178 71 l36 0 l0 -53 q0 -21 -232 -179 l0 -18 q59 0 179 -144 l0 -53 l-90 0 q0 19 -179 161 l0 36 l-89 0 l-90 18 l0 53 q36 234 90 234 ZM430 1469 l17 0 q78 0 126 -214 l-126 -233 l18 0 q33 58 250 179 l55 0 l0 -35 q-321 -178 -395 -251 l-53 0 q0 18 -18 53 q161 237 161 412 q-71 0 -71 71 l36 18 ZM913 1325 l53 0 l0 -17 q-35 -89 -108 -89 q41 -144 126 -144 l0 -35 q0 -26 -53 -54 l-37 0 q-124 118 -124 269 q64 0 143 70 ZM1234 986 q72 -27 72 -54 l0 -53 q-19 0 -53 18 q-97 -18 -161 -18 q100 -196 142 -197 l37 18 q34 -18 53 -18 l0 -36 l-35 0 q0 -54 250 -107 l0 -90 q-191 -89 -519 -197 q-36 -144 -36 -179 l0 -53 q56 -143 358 -143 q0 -36 197 -36 q251 30 251 107 q-36 297 -36 357 l36 0 q75 -113 106 -357 q-81 -197 -250 -197 l-161 0 q-554 55 -554 179 q-37 0 -37 108 q0 75 37 179 q-312 -108 -430 -108 l-18 37 l0 53 q183 143 232 143 l0 -19 q-69 -106 -125 -106 l0 -36 q412 90 412 323 l0 35 l-18 0 q-172 -53 -269 -53 l-18 35 l0 35 q55 0 55 36 q106 0 268 54 l0 215 q-162 -54 -215 -54 q-35 0 -35 35 q156 144 464 144 ZM1109 718 l0 -36 l36 0 q0 36 -36 36 ZM1055 360 l19 0 q43 36 340 126 l0 18 q-88 0 -198 106 q-142 0 -142 -106 q0 -46 -19 -144 Z" /><glyph glyph-name="uni8005" unicode="&#x8005;" d="M1671 1721 l37 0 q-55 -225 -55 -358 l18 0 l0 -53 q-115 -67 -143 -251 q-24 -8 -71 -162 l18 0 q53 36 269 91 l17 0 l0 -18 q0 -55 -358 -180 l-125 -250 l17 0 q236 71 376 71 q73 -26 73 -53 q0 -112 17 -592 q-35 -347 -35 -411 l-90 0 q-110 104 -161 305 q17 0 17 17 l-17 0 q-72 -17 -215 -107 q-108 78 -108 251 q0 18 18 18 l-18 125 l0 18 l18 89 l-36 19 q-401 -591 -609 -591 l-70 0 l-18 90 l0 18 l35 0 l0 -37 l53 0 q205 101 592 662 q0 20 17 54 q-17 31 -17 72 q108 0 108 125 q17 0 70 107 l-17 0 q0 -25 -108 -107 q-18 31 -18 71 q-116 -53 -429 -108 l0 19 l-36 -19 q-36 0 -36 37 q0 42 323 107 q233 37 233 125 l0 179 l-181 -53 l-52 0 q-36 0 -36 36 l0 35 q123 0 287 90 l0 89 l17 108 q-17 29 -17 90 l0 17 q5 36 35 36 l53 0 l18 -214 l0 -73 l18 0 q189 0 269 412 l53 54 ZM1278 862 l17 0 q51 0 162 340 q-162 0 -162 -251 q-17 -30 -17 -89 ZM1260 396 l0 -161 q35 0 35 -17 q97 35 197 35 q144 0 144 -53 l17 0 l0 322 q-210 0 -393 -126 ZM1295 127 l0 -35 q91 -13 91 -53 l0 -36 q-32 0 -108 36 l0 -36 l17 -90 q162 37 233 37 l17 0 l0 -19 l-35 -54 l0 -17 q97 -161 126 -161 l0 35 q17 330 17 412 l-35 18 l-36 -18 l-37 18 l-250 -37 Z" /><glyph glyph-name="uni805A" unicode="&#x805a;" d="M982 1640 l36 0 l0 -36 l18 0 q0 36 17 36 l37 -18 q31 18 71 18 l0 -90 q-27 0 -161 -36 q36 -377 71 -393 l0 -37 l-35 19 l-18 -37 l0 -124 q0 -144 -36 -322 q242 152 358 196 q34 -17 54 -17 l0 -55 q0 -19 -144 -89 l19 -35 l0 -214 l18 0 q97 30 196 142 l54 0 l0 54 l54 36 q33 -18 53 -18 l0 -36 q0 -170 -322 -251 q0 -22 305 -126 q250 -179 250 -285 l-36 -17 l-53 0 q-27 0 -55 52 l-36 -17 l-53 0 l0 53 l18 36 q-241 178 -430 178 l0 -88 q0 -305 -36 -305 l18 -35 l-35 -143 l-53 0 l-126 196 l0 73 l36 0 l0 70 q-113 -107 -233 -107 l-17 37 l0 52 q131 17 285 250 q19 0 19 18 l-37 0 q-112 -77 -267 -106 q-29 0 -73 71 l0 35 q189 251 305 251 l18 0 l0 -53 q-29 0 -72 -125 q-70 0 -107 -73 l0 -18 l18 0 l269 126 q35 76 52 232 q-34 19 -52 19 l-519 -269 l-18 0 l0 91 q143 58 143 106 l36 -18 q0 47 124 71 l-53 73 l0 70 q0 36 53 36 l0 19 l-53 0 q-162 -179 -394 -179 l-18 0 l0 18 q0 135 268 161 q35 18 55 18 l0 18 l-73 17 l0 72 l18 36 q-18 0 -18 18 l-35 -18 q-35 0 -35 35 l0 18 q0 18 70 54 q0 35 -17 394 q-239 -54 -322 -54 l-36 0 l0 54 l36 -19 q0 55 412 126 q165 41 214 108 ZM731 1443 q19 -72 55 -126 l143 36 l-19 36 l0 89 l-179 -35 ZM1609 1460 q95 0 124 -89 q0 -104 -196 -358 q196 -48 196 -161 l-36 -18 l-70 0 q-69 58 -180 108 q-223 -108 -357 -108 q0 28 -37 71 l0 37 l55 0 l0 -37 q179 37 179 72 q-32 18 -216 54 l0 53 l108 19 q29 0 232 -54 q216 224 216 322 l-18 0 q-35 -18 -55 -18 l0 18 q-162 -54 -464 -126 l-19 37 l0 18 q0 40 520 160 l18 0 ZM803 1227 l0 -143 l18 0 q108 0 108 161 l-126 -18 ZM894 1031 l0 -36 q-19 0 -19 18 q-72 0 -72 -197 l18 0 q83 72 108 72 l0 143 l-35 0 ZM1053 -7 q37 -58 37 -106 l0 -55 l36 0 l0 73 l18 214 q-44 0 -91 -126 Z" /><glyph glyph-name="uni82B1" unicode="&#x82b1;" d="M947 1588 l54 0 l0 -35 l-54 0 l0 35 ZM679 1427 l17 0 q36 -6 36 -36 q-36 -58 -36 -108 q18 -322 72 -322 q287 64 287 215 l36 180 l72 0 l0 -73 l-18 -179 l36 0 q155 110 161 144 q-76 53 -143 53 l0 55 q232 0 232 -161 q-63 -65 -321 -217 q-37 -48 -91 -305 q-80 -98 -143 -125 l18 -36 q0 -22 -268 -305 l35 0 l0 37 l18 0 q17 0 17 -19 q59 37 90 37 q36 -45 36 -90 l18 0 q58 49 377 196 q49 360 269 360 q358 -55 358 -125 l0 -36 q-151 -107 -555 -269 l-19 -180 l0 -54 q0 -179 252 -179 l287 17 l0 18 q0 37 -36 180 l53 0 q126 -196 126 -233 q-101 -72 -377 -72 l-144 0 q-268 24 -268 233 l0 18 l18 216 l-18 0 q-323 -131 -323 -216 l0 -89 q0 -90 -18 -269 l-72 0 q-36 0 -36 53 q36 356 36 431 l-18 0 q-154 0 -358 -233 q-59 -37 -108 -37 l-18 37 q90 119 628 664 l0 35 q-110 0 -197 215 q-63 -32 -358 -107 l-37 0 q0 72 358 179 l0 18 q-35 158 -35 287 q19 197 72 197 ZM786 872 q68 -158 108 -163 l18 0 q29 0 54 126 l-19 37 q19 30 19 71 l-19 0 l-161 -71 ZM1324 404 q388 129 430 199 q-31 0 -89 35 q-35 -18 -55 -18 q-18 53 -106 53 l-36 0 q-144 -62 -144 -269 Z" /><glyph glyph-name="uni89C1" unicode="&#x89c1;" d="M1127 1392 q89 -12 89 -53 l0 -772 q0 -109 -107 -109 q-40 0 -72 162 l18 0 l72 -53 l0 646 l18 89 l-18 0 q-143 0 -467 -233 q-18 0 -18 -37 l-19 0 l0 55 q103 171 504 305 ZM534 1356 q36 -72 36 -125 l-18 0 l18 -36 q0 -242 -91 -683 l-18 0 q-35 0 -35 36 l0 36 q53 500 53 629 l0 36 l-18 90 q10 0 73 17 ZM857 1158 l73 0 l0 -35 q-37 -36 -91 -359 q-53 -70 -53 -144 q125 -107 125 -449 q26 0 35 -180 l270 0 q368 0 467 72 l-18 35 l0 18 l18 37 q-36 7 -71 89 l18 37 q-18 31 -18 71 l0 18 q18 0 53 18 q126 -305 126 -359 q0 -80 -538 -144 l0 18 q-19 0 -19 -18 q-395 0 -395 162 l-53 503 l-37 0 q-179 -432 -323 -432 l-18 73 q195 99 449 969 Z" /><glyph glyph-name="uni8BD7" unicode="&#x8bd7;" d="M1403 1568 l73 0 q75 -134 320 -215 l0 -18 q-18 -47 -214 -125 q0 -268 -71 -268 l-19 0 l0 233 q-285 -65 -285 -107 l-73 0 q-17 0 -17 16 l-36 -16 q-36 0 -36 35 q72 54 412 142 q-54 163 -54 216 l0 107 ZM1511 1408 l0 -19 q23 -89 53 -89 l89 18 l0 35 l-142 55 ZM724 1335 q268 -125 268 -232 l0 -19 l-72 0 q0 37 -232 198 l0 18 q5 35 36 35 ZM1708 942 l88 0 l0 -54 l-106 -36 q13 -40 36 -232 l17 0 q53 0 179 71 q31 -17 71 -17 l0 -72 q-52 0 -285 -90 l18 -88 l0 -698 l-91 -18 q-227 227 -410 232 q-47 -90 -144 -90 l-36 0 l0 37 q36 71 107 71 l0 35 q-93 0 -107 55 l0 18 q0 29 126 71 q197 -18 197 -54 l0 -35 q0 -19 -18 -19 q0 -53 161 -89 q0 -28 71 -72 l36 0 l0 55 q0 138 -18 250 q18 96 18 160 q-18 99 -18 144 q-474 -161 -644 -161 q-35 17 -54 17 l-196 -304 l-90 0 q-54 19 -54 108 q108 465 108 483 q0 106 -72 106 q-57 0 -375 -70 l-18 35 q143 108 446 108 q34 0 108 -125 q-35 -282 -108 -519 l37 0 q0 56 322 483 l0 18 l-35 -18 l-91 0 l0 71 q43 0 662 216 q96 17 162 17 ZM956 406 l19 0 q100 71 142 71 l17 0 l0 -18 q-71 -9 -71 -53 l537 161 l0 285 q-519 -155 -519 -214 l-125 -232 Z" /><glyph glyph-name="uni8D39" unicode="&#x8d39;" d="M902 1667 l55 0 q53 -140 53 -180 l108 0 l126 -18 q-22 144 -73 144 l0 54 l55 0 q55 0 124 -216 q90 -5 90 -53 l0 -72 q-126 -55 -126 -340 q0 -41 -17 -72 l17 0 q287 36 431 36 q93 0 142 -89 q0 -216 -429 -304 q0 18 -18 18 l0 -18 q36 -65 36 -144 q0 -88 -54 -591 q161 -131 161 -142 l0 -37 q0 -35 -36 -35 l-35 0 q-302 244 -305 268 q5 36 37 36 l35 0 l53 -36 q36 141 54 626 l-89 19 l-35 0 q-153 0 -323 -161 q-37 -104 -72 -430 l-36 -18 q-35 0 -35 36 l0 108 q0 18 17 18 l-17 35 q0 259 106 627 l-35 17 q-4 -32 -411 -125 q-41 -53 -126 -53 l-18 35 l0 35 l180 108 l268 215 l-35 0 q-60 -36 -108 -36 q-36 0 -36 36 l0 35 q43 0 340 108 l0 234 l-19 88 q-111 -18 -214 -53 l0 35 q0 51 179 72 l35 0 l0 180 ZM1010 1433 l0 -269 q252 94 252 162 q-15 72 -36 72 q-73 0 -216 35 ZM1154 1129 l17 0 q35 18 55 18 q0 -18 18 -18 l0 54 l-18 0 q-72 -27 -72 -54 ZM993 861 l35 -17 q198 23 198 159 l18 73 l-18 0 q-233 0 -233 -162 l0 -53 ZM635 771 l0 -18 l267 73 l0 142 q-206 -111 -267 -197 ZM1297 844 l0 -55 q0 -77 -35 -144 l35 -17 l179 0 q139 0 304 198 l0 35 l-90 0 q-124 0 -393 -17 ZM993 771 l0 -53 q0 -84 -91 -269 l19 0 l268 161 q18 159 18 197 l-18 0 q-146 -36 -196 -36 ZM1082 449 l18 0 q71 0 71 -197 l0 -108 q-89 -446 -196 -446 q0 -29 -126 -90 l-53 0 l0 17 q267 240 267 519 q19 0 19 126 l0 179 Z" /><glyph glyph-name="uni8F83" unicode="&#x8f83;" d="M733 1479 q35 0 35 -54 q0 -114 -35 -304 l17 0 q164 65 216 124 q8 0 71 19 l18 -37 l0 -17 q-5 -44 -358 -197 l0 -36 q0 -68 -108 -393 l18 0 q229 0 251 321 l36 19 l72 0 q0 -55 89 -55 l36 0 q417 199 536 199 q0 24 -142 70 q-179 181 -179 233 l89 0 q96 -106 251 -215 q18 -30 18 -72 q-18 0 -18 -16 q36 -6 36 -37 l0 -36 q-73 -75 -73 -143 q112 0 395 -304 l0 -54 q-126 0 -269 161 l-18 0 q0 -138 -179 -555 l18 0 l269 -215 l0 -71 l-37 0 q-100 0 -303 197 l-18 0 q0 -105 -286 -215 q-235 0 -305 197 l0 71 l18 0 q95 -160 179 -160 q40 0 72 -19 q167 67 268 215 l0 18 q-32 0 -268 215 l-126 -89 q-35 0 -35 124 q-119 -47 -144 -106 l0 -179 q0 -42 -17 -72 q17 -35 17 -54 q0 -27 -35 -161 l-37 0 q-151 212 -340 322 l-17 36 q58 63 357 197 l18 35 l0 179 q-94 -71 -197 -71 l-35 0 q-45 0 -54 71 l107 430 q-307 -108 -340 -108 l-36 0 q-35 0 -35 37 q0 36 430 144 q66 411 107 411 ZM876 404 l18 0 q49 45 197 72 l0 -53 l17 0 q238 236 466 537 q35 17 53 17 l0 18 l-53 0 l-519 -232 q0 -32 -143 -126 l-36 -233 ZM912 799 l0 -55 q44 37 72 37 l0 18 q0 35 -37 35 q-35 -6 -35 -35 ZM1520 781 q0 -47 -161 -216 q-115 -142 -161 -142 l0 -37 q86 0 287 -196 q0 58 179 519 q-10 0 -90 72 l-54 0 ZM572 154 l0 -36 q143 -104 143 -143 l35 0 l0 179 l18 90 l-18 0 q-120 -90 -178 -90 Z" /><glyph glyph-name="uni91CF" unicode="&#x91cf;" d="M1340 1667 q18 0 19 -17 l87 17 l73 0 q29 0 63 -125 q-46 -185 -106 -251 l7 -89 q-39 0 -152 -107 l-36 0 l-56 35 l-35 0 q-74 -59 -262 -89 l45 -108 q660 179 827 179 l16 0 l92 -17 l3 -36 q4 -50 -174 -71 q-3 35 -38 35 l-18 0 q-196 -35 -738 -178 l-53 0 l3 -36 l92 -19 q57 55 581 108 q214 0 229 -179 q-87 -232 -161 -232 l3 -37 l55 0 l3 -36 q-73 -63 -346 -160 l-5 -160 q177 -56 187 -108 q-21 -161 -129 -161 l1 -18 q358 0 373 -179 l1 -18 l-91 0 q-7 89 -167 89 l-18 0 q-202 0 -477 -71 q-37 18 -56 18 l-2 35 q81 89 260 89 q-5 68 -301 198 l-3 36 q-4 48 334 71 l-6 72 l11 89 l-72 0 q-49 0 -104 -36 q-108 18 -111 54 l-35 -18 l-18 0 q-106 206 -126 447 q31 74 29 107 l-19 0 l-439 -107 l-125 0 q-1 19 -22 54 q21 72 47 72 l37 0 l5 -54 q384 90 595 160 q-101 359 -271 698 q3 37 33 37 l17 0 q75 -29 83 -126 q43 36 352 72 q-1 12 209 71 ZM838 1452 q20 -31 82 -357 l468 196 q104 259 100 305 l-18 0 l-632 -144 ZM1214 1434 l90 0 q37 -5 39 -35 q2 -27 -49 -53 q-19 0 -20 17 q-246 -53 -311 -125 q-37 0 -40 35 l-3 37 q-4 47 294 124 ZM1320 790 q1 -16 100 -125 q18 0 16 18 q180 -22 183 -53 q-12 -72 -85 -72 l-18 36 l-89 -18 l-90 0 l17 -215 l36 0 l35 18 l-21 35 l254 180 q44 129 42 161 l-3 35 q-101 19 -146 19 q-220 -19 -231 -19 ZM910 772 l-15 -35 l18 0 l15 35 l-18 0 ZM953 683 l20 -35 l5 -54 l-53 0 l-5 54 l-18 0 l6 -72 q5 -58 112 -286 q127 89 226 89 l4 -53 l18 0 l-17 214 q-70 0 -263 -71 l-3 36 q56 125 277 125 l-7 89 q-3 36 -39 36 q-72 0 -263 -72 ZM1118 -32 q140 -143 155 -143 l17 0 l-13 161 q-95 -18 -159 -18 ZM1366 -14 l7 -90 q81 34 85 72 l-2 18 l-90 0 Z" /><glyph glyph-name="uni971C" unicode="&#x971c;" d="M1421 1542 l19 -35 l0 -55 l-37 0 q-95 0 -285 -53 l0 -18 q0 -40 17 -73 q-17 -30 -17 -70 l124 18 l0 -18 q71 35 198 35 l250 0 q28 0 71 -71 q0 -200 -429 -537 q-29 -19 -90 -19 l0 -16 q45 0 143 -19 q0 71 252 143 q138 0 178 -250 l-18 0 q36 0 72 -717 l-54 -35 l-54 0 q-53 130 -53 161 l-18 0 l-394 -161 l-89 0 l0 72 q0 36 53 36 l-18 125 l0 89 q-250 0 -250 -143 q0 -197 -53 -197 l-37 0 l-18 90 l0 89 l18 90 l-18 0 q-35 -18 -53 -18 l0 18 q-69 -20 -215 -126 q-29 -17 -90 -17 l-17 35 q0 27 393 305 q18 127 18 143 q-18 0 -18 18 q-388 -161 -446 -161 q-36 0 -36 35 l0 18 q15 49 482 179 l0 198 l-18 0 l-196 -143 l-72 0 l0 52 q0 32 286 198 q18 30 18 70 l19 0 l88 -17 l18 36 l0 54 l-18 0 q-48 -36 -428 -108 l-19 0 l-36 18 q0 91 269 125 q40 0 71 18 l108 -18 l53 0 q-18 179 -53 179 q-435 -89 -554 -161 l18 -126 l0 -35 q26 0 88 -142 q36 -7 36 -37 q0 -25 -54 -54 l-17 0 q-76 0 -179 376 q75 269 214 269 l18 -35 q-53 -73 -89 -73 l0 -18 l18 0 q155 68 519 144 q0 22 17 179 l-17 0 q-135 -36 -250 -36 l-54 0 l0 71 q666 126 715 126 ZM1135 1149 l0 -19 q27 -411 90 -411 l35 0 q108 62 108 88 l0 19 l-143 -72 q-36 0 -36 36 l0 17 q74 91 214 91 q35 -18 55 -18 q196 246 196 304 l-17 0 q-73 0 -73 18 l-35 -18 l-36 0 q-17 0 -17 18 q-99 -53 -341 -53 ZM1279 1094 l17 0 q197 -53 197 -89 l0 -54 l-90 0 l-124 37 l0 106 ZM992 665 l0 -72 l71 -18 l0 36 q0 26 -53 54 l-18 0 ZM1332 450 l0 -18 q197 37 340 37 q6 -37 36 -37 l0 37 q-13 196 -71 196 q-143 -23 -287 -215 l-18 0 ZM1171 557 l0 -18 l18 0 q36 0 36 36 l0 18 l-18 0 q-36 -5 -36 -36 ZM1010 361 q0 -59 17 -90 l-17 -107 l0 -54 q99 0 232 54 l-17 215 l0 71 q-215 -54 -215 -89 ZM1690 396 q0 -35 -18 -35 q-224 -18 -251 -18 q-35 18 -53 18 q0 -29 -36 -73 l0 -88 q187 106 287 106 l18 0 q25 0 53 -53 l0 -53 l-18 0 l-71 18 l-269 -126 l18 -89 q-18 -35 -18 -53 q35 -19 53 -19 l-17 -36 l0 -18 q246 144 375 144 q0 85 -35 375 l-18 0 Z" /><glyph glyph-name="uni9752" unicode="&#x9752;" d="M1198 1703 q96 0 143 -214 l90 17 l54 0 l0 -36 q0 -32 -162 -72 l-18 -125 q144 37 233 37 l0 -19 q0 -29 -268 -125 q0 -96 -35 -180 l17 0 q124 0 447 144 l55 0 l0 -53 q-214 -97 -537 -180 q0 -53 -37 -53 l-53 35 q-364 -107 -627 -107 l-53 0 l0 54 q0 26 53 53 l35 0 q37 -5 37 -35 q375 53 572 126 l0 160 q-59 -36 -267 -89 q-36 18 -55 18 l0 18 q0 26 55 53 l35 -18 q0 29 286 125 l0 126 q-238 -35 -250 -35 q-126 17 -126 53 q6 35 36 35 l178 0 q181 36 181 73 q0 60 -55 142 l0 36 q6 36 36 36 ZM1502 826 l36 0 q81 0 90 -1037 l0 -198 l-73 -18 q-147 230 -178 393 l19 0 q124 -117 124 -214 l35 0 l-35 483 l18 36 l-36 430 l18 0 q-18 35 -18 53 q-358 -76 -358 -179 l0 -53 q204 36 287 36 q35 -18 54 -18 l0 -36 q0 -29 -323 -90 q-35 -58 -35 -106 l0 -55 l17 0 q191 37 252 37 l0 -19 q-23 -50 -287 -144 l0 -214 q0 -36 -36 -36 l-37 0 q-35 0 -35 36 l0 108 q0 143 18 375 q-18 31 -18 71 q41 0 90 323 l18 0 q35 0 35 -54 q273 90 358 90 Z" /><glyph glyph-name="uni9875" unicode="&#x9875;" d="M1728 1579 q72 -26 72 -54 l0 -53 q-11 0 -305 -162 q-377 -146 -431 -196 l0 -19 q18 -157 18 -180 l378 126 l89 0 q161 0 161 -305 q0 -394 -90 -537 l-36 -18 l-17 0 q-180 25 -180 161 l18 0 q17 0 108 -72 l18 0 q29 0 71 144 q0 18 -18 18 q18 91 36 395 q-18 124 -53 124 l-72 0 q-45 0 -431 -124 q18 -35 18 -55 l-18 0 q0 -18 18 -18 q-35 -173 -35 -197 l17 -90 q-17 -125 -17 -214 q17 -128 17 -144 l-35 -18 l-35 0 q-31 0 -55 126 l18 89 l0 377 q0 40 19 71 q-19 35 -19 55 q37 123 37 214 l0 91 q116 113 626 340 l0 18 l-36 0 q-131 -18 -590 -179 q-371 -179 -521 -179 q-71 26 -71 53 l0 89 l35 0 l18 -71 q43 0 932 340 q209 54 341 54 ZM1297 862 l19 0 q48 0 71 -287 q0 -344 -143 -734 q-128 -144 -268 -144 l0 53 q250 0 304 807 l0 197 l-18 90 l35 18 ZM1476 109 q79 0 216 -143 q97 -36 108 -36 q-15 -144 -90 -144 q-40 0 -197 234 q-12 0 -72 35 l0 18 q6 36 35 36 Z" /><glyph glyph-name="exclam" unicode="!" d="M255 997 l20 0 q39 0 59 -216 q-20 -107 -20 -178 l0 -216 q0 -106 -78 -138 q-59 20 -59 118 l0 79 q14 551 78 551 ZM216 52 l20 0 q28 0 59 -59 l0 -59 q0 -28 -59 -59 l-20 0 q-28 0 -59 59 l0 59 q0 29 59 59 Z" /><glyph glyph-name="quotedbl" unicode="&quot;" d="M80 1495 l39 0 q39 -6 39 -40 l0 -216 q0 -40 -39 -40 l-59 0 l0 99 l20 197 ZM434 1495 l20 -40 q-33 -315 -99 -315 q-28 0 -59 59 q0 269 138 296 Z" /><glyph glyph-name="hyphen" unicode="-" d="M296 510 l355 0 l0 -78 l-99 -20 l-256 0 l-236 20 l0 59 l236 19 Z" /><glyph glyph-name="period" unicode="." d="M158 156 q79 -20 79 -118 l0 -59 q0 -31 -79 -79 l-39 0 q-28 0 -59 59 l0 118 q41 79 98 79 Z" /><glyph glyph-name="slash" unicode="/" d="M473 963 q-256 -729 -256 -945 l-59 -39 l-39 0 q-28 0 -59 59 q17 337 354 925 l59 0 Z" /><glyph glyph-name="zero" unicode="0" d="M-219 446 q103 129 107 212 q2 63 -43 112 q-48 51 -104 35 q-51 -14 -76 -74 q-20 -49 -20 -116 q0 -180 64 -348 q57 -151 152 -191 q80 -34 174 8 q82 37 147 116 q108 132 137 304 q30 176 -36 328 q-68 156 -222 246 q-157 91 -321 63 q-132 -22 -143 42 q196 79 412 -3 q214 -81 319 -268 q104 -184 73 -409 q-30 -222 -174 -382 q-73 -81 -160 -121 q-100 -46 -190 -24 q-96 23 -166 117 q-59 78 -93 194 q-45 150 -48 308 q-2 129 37 205 q26 48 70 78 q47 32 98 30 q50 -2 94 -38 q41 -34 60 -85 q33 -84 7 -206 q-14 -65 -57 -109 q-49 -49 -98 -24 Z" /><glyph glyph-name="one" unicode="1" d="M306 50 q-153 493 -95 1006 q23 195 -7 273 q-347 -266 -730 -479 q-31 -17 -65 -14 q-37 3 -36 32 q137 91 412 273 q275 183 413 274 q50 34 81 34 q24 0 42 -16 q19 -17 15 -39 q-97 -563 -4 -1127 q15 -87 57 -145 q51 -70 116 -54 q6 1 38 11 q24 7 38 9 q42 7 47 -23 q-118 -74 -260 -91 q-143 -17 -275 27 q96 68 213 49 Z" /><glyph glyph-name="two" unicode="2" d="M186 886 q-125 -256 -192 -533 q-23 -93 -13 -165 q13 -90 78 -122 q69 -33 204 25 q244 106 366 158 q-8 -72 -81 -129 q-51 -40 -147 -79 q-173 -70 -267 -72 q-74 -1 -137 29 q-68 32 -100 91 q-31 60 -22 146 q7 56 38 150 q37 113 112 338 q74 226 111 338 q-209 64 -428 -20 q-219 -83 -333 -270 q-4 89 52 173 q51 77 136 126 q117 68 356 96 q110 13 191 -12 q101 -30 116 -112 q10 -53 -40 -156 Z" /><glyph glyph-name="four" unicode="4" d="M548 1013 q45 -34 55 -98 q10 -60 -14 -118 q-30 -74 -148 -182 q-170 -156 -175 -161 q-58 -53 -72 -89 q-17 -42 -6 -101 q2 -13 28 -103 q16 -58 10 -106 q-7 -59 -46 -86 q-70 170 -81 354 q-138 -61 -288 -78 q-131 -15 -238 24 q-125 46 -162 149 q-23 67 -4 153 q12 57 52 151 q97 230 146 346 q32 6 41 -36 q8 -37 -6 -75 q-67 -174 -145 -378 q-24 -63 11 -130 q33 -65 97 -96 q103 -50 269 -12 q88 20 147 64 q71 52 74 124 q1 23 -8 62 q-10 45 -12 62 q-3 34 12 62 q16 32 45 36 q0 -128 70 -236 q171 121 235 206 q50 66 70 140 q22 82 1 154 q7 0 21 -1 q14 -1 21 -1 Z" /><glyph glyph-name="five" unicode="5" d="M37 1368 q48 0 69 -12 q24 -14 30 -41 q-234 -47 -474 -75 q51 78 164 107 q79 21 211 21 ZM-506 250 q288 -232 557 -208 q146 14 258 172 q106 152 98 310 q-10 212 -93 317 q-112 107 -350 108 q-223 2 -359 -80 q-9 -6 -21 2 q-10 7 -18 20 q-54 95 -57 208 q-2 114 48 211 q31 -20 38 -67 q4 -27 1 -92 q-3 -60 3 -87 q9 -41 45 -53 q20 -8 68 0 q381 61 563 -51 q114 -72 167 -173 q49 -93 56 -238 q7 -157 -52 -311 q-67 -176 -186 -226 q-89 -37 -230 -42 q-194 -7 -321 48 q-78 34 -134 93 q-61 63 -81 139 Z" /><glyph glyph-name="six" unicode="6" d="M349 1361 q-115 74 -245 34 q-87 -26 -169 -110 q-199 -200 -274 -641 q-35 -205 -8 -325 q18 -84 67 -149 q52 -71 125 -99 q81 -31 186 -10 q139 28 239 134 q103 111 101 246 q-1 67 -36 131 q-34 61 -91 103 q-57 43 -121 55 q-69 13 -131 -13 q-82 -34 -105 -105 q-11 -38 1 -76 q13 -40 46 -58 q-53 -18 -99 28 q-46 45 -40 103 q5 54 47 99 q37 41 94 65 q86 37 182 28 q97 -9 175 -62 q77 -52 122 -139 q44 -86 42 -180 q-3 -104 -62 -202 q-57 -92 -149 -156 q-175 -119 -364 -86 q-96 17 -175 76 q-81 61 -117 147 q-30 72 -36 187 q-12 237 59 468 q70 231 212 421 q122 162 250 199 q82 23 162 -8 q84 -32 112 -105 Z" /><glyph glyph-name="seven" unicode="7" d="M410 1462 q-552 -140 -835 -95 q-4 -24 -11 -73 q-6 -49 -10 -73 q-41 16 -61 59 q-20 43 -7 85 q14 42 55 66 q41 23 84 13 q150 -35 389 18 q326 73 393 78 q44 3 80 -19 q40 -24 24 -57 q-187 -393 -236 -654 q-72 -390 72 -682 q25 -51 29 -89 q5 -51 -30 -70 q-224 300 -174 747 q34 308 238 746 Z" /><glyph glyph-name="eight" unicode="8" d="M556 700 q-42 118 -226 232 q-182 113 -378 197 q-70 30 -111 31 q-134 3 -252 -215 q-110 -201 -142 -348 q-44 -203 42 -343 q58 -95 168 -147 q104 -50 222 -48 q203 3 424 150 q140 93 214 217 q85 144 39 274 ZM-261 1266 q122 -8 263 -69 q88 -38 245 -129 q158 -91 237 -162 q118 -105 148 -228 q37 -152 -59 -311 q-84 -139 -238 -241 q-236 -156 -465 -157 q-129 -1 -243 51 q-121 54 -192 152 q-68 93 -86 220 q-17 118 11 241 q43 186 210 431 q74 110 35 166 q-79 113 -80 218 q0 61 27 114 q29 56 80 83 q53 27 150 25 q154 -4 241 -60 q55 -35 84 -92 q31 -61 18 -120 q-14 -63 -75 -96 q-64 -33 -117 -2 q68 -3 100 71 q32 73 -5 133 q-34 56 -104 83 q-62 23 -138 21 q-72 -2 -116 -27 q-48 -26 -72 -78 q-24 -52 -12 -105 q12 -53 55 -90 q44 -38 98 -42 Z" /><glyph glyph-name="colon" unicode=":" d="M158 569 l59 0 q40 -6 40 -39 l0 -98 q-20 -59 -118 -59 l-40 59 l0 78 q0 29 59 59 ZM139 18 l59 0 q39 0 79 -138 q-37 -98 -158 -98 q-59 72 -59 138 q38 90 79 98 Z" /><glyph glyph-name="semicolon" unicode=";" d="M139 530 l59 0 q31 0 79 -79 q0 -19 -99 -98 l-39 0 q-29 0 -59 59 q12 118 59 118 ZM178 58 l39 0 q33 0 60 -138 q0 -231 -178 -256 l0 20 q40 91 40 196 q-79 0 -79 99 l0 20 q20 59 118 59 Z" /><glyph glyph-name="less" unicode="&lt;" d="M493 884 l59 0 l0 -19 q0 -64 -374 -374 l453 -276 l0 -39 q0 -40 -40 -40 l-39 0 q-492 237 -492 394 q294 215 433 354 Z" /><glyph glyph-name="equal" unicode="=" d="M611 629 q38 -20 59 -20 l0 -79 l-98 -20 l-512 0 l0 59 q137 40 236 40 l236 0 q45 0 79 20 ZM710 412 l19 -39 q0 -67 -354 -99 q-236 15 -236 59 l0 40 q413 39 571 39 Z" /><glyph glyph-name="greater" unicode="&gt;" d="M99 983 q111 0 689 -453 l0 -39 q0 -29 -256 -79 q-15 -20 -275 -197 l-40 0 q-39 0 -39 39 l0 40 q24 53 354 275 q-446 329 -472 374 q6 40 39 40 Z" /><glyph glyph-name="question" unicode="?" d="M414 1357 q189 0 237 -295 l0 -99 q0 -127 -296 -394 q40 -125 40 -157 l-59 -39 l-40 0 q-98 50 -98 157 l0 118 q315 276 315 374 l0 79 q-15 157 -138 157 q-145 0 -236 -177 q19 -34 19 -78 l-39 0 q-39 0 -59 118 q0 187 354 236 ZM296 274 l79 0 q28 0 59 -59 l0 -39 q0 -111 -98 -138 q-99 27 -99 138 q14 98 59 98 Z" /><glyph glyph-name="F" unicode="f" d="M238 669 q250 64 507 33 q-92 -108 -247 -118 q-155 -10 -260 85 ZM341 1456 q-88 -31 -146 -125 q-50 -80 -69 -190 q-27 -161 6 -400 q33 -243 102 -479 q31 -105 34 -165 q5 -93 -42 -149 q-145 264 -212 759 q-28 210 -20 344 q10 189 89 320 q91 152 274 195 q86 21 162 3 q83 -19 138 -80 q44 -48 48 -114 q4 -70 -46 -100 q-20 101 -120 159 q-100 57 -198 22 Z" /><glyph glyph-name="I" unicode="i" d="M218 944 q34 -355 37 -712 q1 -82 -23 -139 q-31 -72 -96 -81 l-29 1052 q42 19 76 -27 q30 -39 35 -93 Z" /><glyph glyph-name="T" unicode="t" d="M697 1110 q-16 -18 -14 -66 q12 -323 37 -969 q-13 -20 -42 -17 q-27 3 -42 23 q-22 27 -24 94 q-4 127 -14 382 q-9 254 -13 381 q-4 92 -37 124 q-38 37 -141 29 q-74 -5 -213 -16 q-146 -12 -214 -17 q-15 9 -14 23 q1 13 14 28 q28 32 67 38 q552 85 1109 131 q16 -20 17 -46 q0 -27 -15 -47 q-203 -10 -403 -48 q-44 -9 -58 -27 Z" /><glyph glyph-name="U" unicode="u" d="M297 375 q-41 161 -24 369 q11 130 60 372 q-43 2 -101 -18 q-12 -5 -48 -19 q-31 -12 -49 -18 q-55 -18 -105 -11 q-58 9 -83 50 l329 97 q58 17 88 11 q23 -6 38 -23 q16 -19 12 -41 q-50 -280 -54 -565 q-1 -83 8 -135 q11 -73 45 -123 q39 -58 109 -77 q73 -19 123 23 q200 169 345 392 q145 223 219 475 q11 36 20 53 q14 28 36 39 q12 6 27 3 q14 -2 25 -10 q12 -8 16 -19 q4 -13 -2 -24 q-64 -110 -80 -239 q-15 -129 20 -251 q39 -133 124 -189 q50 -32 110 -30 q63 2 102 42 q11 -54 -37 -97 q-46 -43 -105 -39 q-95 5 -188 115 q-62 72 -89 148 q-31 88 -8 164 q-28 0 -51 -26 q-16 -18 -33 -55 q-106 -220 -272 -400 q-100 -108 -187 -144 q-58 -24 -117 -23 q-63 2 -111 34 q-77 52 -112 189 Z" /><glyph glyph-name="Y" unicode="y" d="M649 602 q149 271 358 499 q47 52 97 74 q61 27 103 -6 q-132 -87 -257 -242 q-77 -95 -205 -292 q-45 -69 -63 -112 q-27 -66 -19 -121 q58 -368 70 -740 q2 -53 -26 -60 q-20 -6 -34 18 q-12 20 -14 47 q-12 191 -37 573 q-4 63 -14 99 q-16 53 -52 79 q-65 46 -108 134 q-32 64 -58 168 q-34 129 -49 170 q-33 94 -84 152 q-61 69 -154 84 q-45 7 -85 -3 q-42 -12 -72 -42 q9 37 38 63 q26 25 65 38 q81 26 154 -9 q64 -31 116 -100 q39 -52 77 -137 q81 -182 121 -377 q5 -22 29 -29 q24 -8 45 3 q28 14 58 69 Z" /><glyph glyph-name="underscore" unicode="_" d="M710 -1 q64 -20 78 -79 q0 -99 -354 -99 q-98 0 -374 40 l0 39 q0 65 650 99 Z" /><glyph glyph-name="a" unicode="a" d="M710 240 q92 86 134 210 q43 123 24 248 q-11 72 -47 126 q-41 61 -102 73 q-96 19 -198 -87 q-89 -92 -136 -214 q-47 -122 -44 -249 q1 -83 32 -128 q51 -75 161 -62 q100 12 176 83 ZM1182 219 q-76 -34 -161 -4 q-85 31 -123 105 q-111 -169 -211 -234 q-70 -46 -148 -55 q-85 -11 -153 24 q-91 48 -129 166 q-32 100 -20 225 q17 164 90 294 q82 146 214 204 q69 30 150 24 q78 -5 147 -41 q70 -37 111 -96 q44 -62 42 -136 q0 -28 -10 -77 q-11 -55 -13 -77 q-9 -104 53 -197 q61 -93 161 -125 Z" /><glyph glyph-name="b" unicode="b" d="M383 88 q-75 43 -110 101 q-38 64 -43 211 q-14 520 -21 780 q-2 76 20 108 q16 23 46 29 q32 5 48 -16 q12 -16 13 -54 q10 -568 15 -844 q2 -123 110 -208 q108 -85 230 -62 q120 23 194 137 q73 113 48 235 q-26 120 -134 198 q-108 78 -232 68 q-4 27 -11 71 q132 40 268 -23 q135 -62 195 -188 q59 -125 25 -270 q-34 -143 -141 -232 q-106 -88 -253 -99 q-146 -11 -267 58 Z" /><glyph glyph-name="c" unicode="c" d="M784 195 q-57 -103 -177 -146 q-120 -43 -229 1 q-109 45 -166 158 q-57 114 -27 228 q22 81 99 181 q96 124 188 114 q15 -40 -11 -91 q-14 -27 -59 -83 q-92 -115 -93 -220 q-1 -63 33 -116 q37 -56 94 -70 q55 -14 176 28 q114 39 172 16 Z" /><glyph glyph-name="d" unicode="d" d="M705 757 q10 -20 -20 -21 q-27 -1 -51 12 q-71 39 -147 -30 q-63 -57 -103 -155 q-77 -188 -53 -288 q18 -76 88 -119 q73 -44 135 -8 q132 76 211 228 q73 139 84 306 q16 227 -101 623 q-39 131 6 185 q58 -27 93 -99 q24 -50 42 -138 q65 -306 65 -507 q-1 -282 -117 -478 q-106 -178 -266 -226 q-88 -27 -178 -2 q-93 25 -144 96 q-64 87 -48 222 q13 99 71 235 q82 190 179 245 q70 39 152 16 q85 -25 102 -97 Z" /><glyph glyph-name="e" unicode="e" d="M696 385 q-74 -52 -143 -65 q-85 -16 -125 39 q247 100 376 333 q-49 60 -142 45 q-82 -13 -154 -72 q-133 -108 -158 -238 q-15 -74 11 -144 q28 -74 89 -110 q52 -31 123 -30 q49 0 134 18 q191 40 269 16 q-107 -97 -243 -132 q-144 -38 -270 8 q-133 48 -202 181 q-72 136 -22 262 q29 73 121 169 q146 151 267 179 q84 19 162 -16 q83 -36 107 -111 q49 -160 -200 -332 Z" /><glyph glyph-name="f" unicode="f" d="M504 920 q4 219 43 435 q46 255 169 344 q82 60 189 36 q50 -12 84 -41 q37 -32 47 -78 q-69 38 -152 25 q-83 -12 -138 -68 q-49 -49 -75 -133 q-17 -54 -31 -155 q-4 -28 -23 -107 q-17 -76 -23 -119 q-18 -146 53 -217 q139 21 183 5 q22 -8 63 -61 q-57 9 -161 -46 q-108 -57 -105 -107 q17 -284 102 -555 q7 -25 -21 -41 q-28 -16 -52 -3 q-35 19 -54 91 q-72 262 -104 531 q-3 29 -38 40 q-29 8 -67 3 q-67 -9 -71 -5 q-5 5 -71 -4 q-45 42 -52 74 q60 10 100 16 q40 6 99 16 q57 9 81 37 q23 29 25 87 Z" /><glyph glyph-name="g" unicode="g" d="M565 750 q-83 -34 -142 -90 q-65 -62 -87 -139 q-23 -83 16 -164 q41 -84 120 -103 q113 53 173 100 q88 68 117 152 q15 45 4 98 q-10 49 -41 89 q-31 41 -72 57 q-45 18 -88 0 ZM869 -391 q36 368 -82 719 q-291 -252 -464 -137 q-106 69 -96 226 q8 134 89 268 q116 191 251 204 q73 7 143 -36 q65 -40 107 -109 q54 -87 91 -288 q11 -65 35 -194 q23 -129 35 -193 q63 -347 16 -517 q-37 -133 -137 -223 q-106 -96 -231 -91 q-63 3 -120 43 q-54 38 -86 97 q-33 59 -32 119 q1 65 43 112 q-15 -76 27 -148 q41 -72 114 -97 q74 -26 151 6 q77 31 112 100 q25 48 34 139 Z" /><glyph glyph-name="h" unicode="h" d="M226 1417 q24 15 54 15 q30 0 53 -16 q2 -60 8 -180 q5 -120 7 -180 q2 -49 15 -71 q20 -36 70 -42 q45 -5 89 16 q14 6 78 44 q47 28 80 36 q78 17 154 -36 q70 -50 104 -132 q26 -64 38 -161 q3 -24 9 -84 q5 -53 9 -83 q36 -267 195 -483 q-24 -30 -68 -32 q-42 -1 -76 23 q-50 35 -87 131 q-101 258 -95 534 q1 51 -29 95 q-28 41 -77 67 q-48 25 -102 28 q-57 4 -104 -18 q-92 -43 -141 -148 q-45 -98 -38 -210 q10 -162 9 -184 q-8 -103 -74 -140 q-62 604 -81 1211 Z" /><glyph glyph-name="i" unicode="i" d="M273 922 q-34 -39 -90 -39 q-57 -1 -91 37 q30 45 92 44 q62 0 92 -46 l-3 4 ZM341 32 q-45 197 -61 399 q-4 62 13 108 q21 57 68 61 q52 -220 64 -446 q3 -51 -20 -92 q-26 -46 -64 -30 Z" /><glyph glyph-name="j" unicode="j" d="M299 951 q13 -28 -1 -54 q-12 -24 -41 -40 q-29 -16 -62 -17 q-36 -2 -63 13 q15 53 66 84 q51 31 105 19 l-4 -5 ZM580 406 q82 -374 19 -579 q-45 -147 -163 -243 q-126 -102 -266 -84 q-32 3 -54 33 q-9 13 -8 24 q0 13 14 19 q155 -4 266 143 q102 137 108 312 q4 120 -37 324 q-46 233 -52 324 q73 -24 118 -109 q32 -60 55 -164 Z" /><glyph glyph-name="k" unicode="k" d="M325 43 q-14 187 -44 560 q-30 374 -44 561 q-4 45 25 83 q30 39 74 48 q91 -536 59 -1078 q-8 -135 -70 -174 ZM746 509 q115 96 145 165 q23 54 12 110 q-11 60 -55 89 q53 36 116 -7 q62 -41 68 -108 q9 -106 -109 -230 q-139 -146 -162 -204 q112 -48 197 -174 q56 -84 124 -246 q27 -64 20 -99 q-5 -26 -28 -42 q-23 -17 -46 -7 q-14 6 -30 28 q-38 52 -73 148 q-48 127 -62 155 q-40 83 -104 132 q-74 57 -151 45 q-60 -9 -77 -9 q-42 2 -50 32 q44 37 133 111 q88 74 132 111 Z" /><glyph glyph-name="l" unicode="l" d="M53 905 q-2 152 23 227 q11 31 36 51 q27 21 44 4 q10 -10 11 -40 q18 -737 27 -1119 q-78 45 -108 161 q-22 79 -24 219 l-9 497 Z" /><glyph glyph-name="m" unicode="m" d="M1431 664 q-59 52 -122 63 q-68 12 -136 -24 q-64 -34 -103 -97 q-65 -103 -61 -273 q3 -119 -8 -172 q-18 -93 -84 -123 q-25 69 -24 276 q1 180 -64 266 q-44 58 -118 73 q-76 16 -126 -29 q-29 -27 -52 -86 q-96 -246 -24 -499 q-21 -21 -54 -3 q-30 16 -46 48 q-89 170 10 467 q39 116 108 187 q83 86 174 59 q39 -12 143 -101 q40 -34 68 -46 q38 -17 75 -6 q29 102 135 158 q102 53 211 31 q102 -21 188 -100 q79 -73 126 -177 q68 -153 77 -424 q-23 -17 -53 -17 q-30 0 -54 16 q-15 188 -45 290 q-44 157 -141 243 Z" /><glyph glyph-name="n" unicode="n" d="M986 2 q-14 80 -41 241 q-27 160 -41 241 q-25 144 -66 206 q-32 47 -82 71 q-54 26 -104 11 q-49 -14 -100 -75 q-90 -107 -130 -245 q-41 -138 -24 -277 q-23 -18 -55 -6 q-30 12 -44 40 q-18 38 -5 118 q25 149 55 236 q44 126 118 205 q86 91 213 107 q134 16 213 -69 q46 -50 80 -160 q94 -309 81 -632 q-31 -21 -68 -12 Z" /><glyph glyph-name="o" unicode="o" d="M324 869 q-65 -152 -58 -322 q7 -170 84 -316 q48 -90 109 -93 q26 -2 64 16 q119 57 182 184 q63 126 37 256 q-26 129 -133 222 q-106 92 -238 99 q-4 52 59 68 q58 15 115 -9 q125 -53 209 -168 q84 -114 97 -250 q13 -135 -47 -264 q-60 -129 -172 -206 q-79 -54 -153 -58 q-80 -4 -154 50 q-68 51 -105 131 q-51 112 -47 328 q5 278 151 332 Z" /><glyph glyph-name="p" unicode="p" d="M910 319 q-52 -118 -151 -185 q-110 -75 -211 -33 q121 90 179 148 q90 91 123 188 q38 113 -18 226 q-57 118 -168 125 q-116 6 -198 -113 q-68 -100 -91 -246 q-72 -459 52 -906 q40 -142 47 -195 q14 -112 -25 -189 q-200 530 -206 1095 q-3 310 97 472 q66 109 181 162 q122 56 233 16 q147 -54 188 -236 q38 -169 -32 -329 Z" /><glyph glyph-name="q" unicode="q" d="M714 635 q-2 40 -30 72 q-25 29 -66 44 q-90 34 -163 -9 q-64 -38 -106 -119 q-29 -57 -57 -157 q-49 -173 -3 -261 q32 -63 109 -78 q34 -7 63 3 q30 10 45 38 q16 -70 -49 -120 q-64 -49 -136 -29 q-68 19 -114 86 q-43 61 -51 137 q-10 101 50 281 q74 221 162 305 q66 64 155 81 q95 18 168 -29 q76 -49 109 -158 q23 -75 28 -202 q31 -743 44 -1486 q-37 -7 -61 36 q-20 36 -23 85 q-12 247 -37 740 q-25 493 -37 740 Z" /><glyph glyph-name="r" unicode="r" d="M545 860 q16 -45 -38 -82 q-18 -12 -52 -29 q-48 -23 -54 -26 q-75 -41 -106 -141 q-26 -80 -21 -189 q9 -175 9 -188 q-3 -108 -43 -177 q-69 34 -88 171 q-37 280 37 443 q48 107 146 170 q103 67 210 48 Z" /><glyph glyph-name="s" unicode="s" d="M425 1012 q15 -19 16 -44 q1 -26 -14 -45 q-59 30 -118 -23 q-58 -52 -54 -122 q6 -103 139 -225 q142 -131 165 -212 q21 -77 -15 -157 q-34 -78 -106 -119 q-69 -40 -154 -37 q-84 3 -155 46 q-10 22 9 45 q18 21 45 25 q20 2 51 -3 q41 -8 51 -8 q52 -4 99 28 q46 31 63 81 q16 50 -3 102 q-19 53 -63 81 q-96 61 -155 144 q-65 94 -67 193 q-2 108 80 189 q86 84 186 61 Z" /><glyph glyph-name="t" unicode="t" d="M585 874 q-1 61 -2 183 q-1 123 -2 184 q47 27 100 16 q10 -142 31 -424 q4 -58 24 -80 q26 -30 79 -24 q23 3 94 25 q48 15 95 -5 q50 -22 38 -64 q-25 -38 -87 -46 q-23 -3 -112 0 q-59 2 -107 -30 q-52 -35 -37 -83 q40 -122 28 -253 q-12 -132 -73 -245 q-73 226 -36 459 q9 57 -55 88 q-60 28 -124 12 q-19 -5 -59 -18 q-40 -13 -60 -18 q-70 -18 -116 2 q-2 54 53 91 q46 31 113 41 q83 13 118 26 q63 23 84 70 q14 29 13 93 Z" /><glyph glyph-name="u" unicode="u" d="M1001 376 q-67 34 -145 -58 q-21 -26 -64 -88 q-42 -61 -65 -87 q-79 -91 -191 -88 q-112 4 -188 99 q-76 96 -86 247 q-10 151 52 263 q49 -44 64 -193 q16 -164 50 -215 q53 -80 150 -49 q81 26 159 114 q174 196 297 455 q-3 -219 79 -420 q82 -202 221 -316 q-56 -22 -117 -3 q-58 17 -107 67 q-109 110 -109 272 Z" /><glyph glyph-name="v" unicode="v" d="M171 577 q20 18 50 18 q29 -1 48 -20 q6 -196 50 -284 q35 -69 98 -108 q67 -43 136 -29 q78 16 131 98 q42 68 62 167 q40 204 11 408 q32 24 63 -16 q29 -36 33 -85 q24 -308 -33 -453 q-43 -113 -138 -183 q-101 -75 -210 -59 q-81 11 -150 72 q-63 57 -99 139 q-51 118 -52 335 Z" /><glyph glyph-name="w" unicode="w" d="M1031 370 q12 -29 33 -46 q24 -20 44 -5 q19 298 -61 587 q-44 8 -71 -42 q-23 -43 -22 -99 q3 -205 77 -395 ZM1414 902 q23 30 68 15 q40 -13 71 -48 q86 -99 132 -225 q45 -126 41 -257 q-6 -171 -97 -257 q-81 -75 -216 -72 q-108 2 -239 53 q-31 12 -62 -22 q-10 -12 -46 -70 q-51 -85 -166 -92 q-110 -7 -193 59 q-130 104 -175 359 q-58 334 -86 397 q59 10 103 -50 q37 -52 47 -126 q45 -347 43 -340 q27 -88 87 -149 q66 -67 147 -72 q42 -2 82 20 q38 21 63 57 q26 37 29 75 q4 43 -21 76 q-107 146 -136 332 q-29 186 29 358 q15 44 68 54 q51 10 92 -18 q61 -44 86 -164 q31 -149 16 -299 q-13 -123 -13 -131 q-2 -75 21 -125 q21 -46 65 -75 q41 -27 95 -35 q113 -18 196 49 q77 64 102 173 q24 103 -6 208 q-46 161 -227 342 Z" /><glyph glyph-name="x" unicode="x" d="M741 408 q24 -21 152 -68 q46 -17 67 -35 q28 -24 28 -60 q-88 -18 -177 6 q-90 23 -157 83 q-55 -164 -155 -306 q-34 29 -34 75 q0 33 20 92 q52 150 44 199 q-10 59 -71 110 q-26 22 -118 77 q-69 40 -105 95 q-44 65 -19 124 q167 -106 366 -232 q47 244 231 410 q22 -63 -7 -146 q-12 -35 -66 -141 q-41 -80 -46 -151 q-5 -86 47 -132 Z" /><glyph glyph-name="y" unicode="y" d="M1094 745 q-98 -637 30 -1268 q12 -64 -2 -115 q-17 -62 -67 -60 q-219 693 -94 1408 q12 70 39 95 q19 19 48 19 q30 0 42 -22 q10 -18 4 -57 ZM233 762 q73 19 148 -28 q68 -42 109 -117 q28 -51 60 -148 q36 -106 56 -149 q90 -188 282 -271 q-39 -54 -118 -49 q-76 5 -128 57 q-42 43 -74 116 q-3 6 -49 132 q-96 258 -286 457 Z" /><glyph glyph-name="bar" unicode="|" d="M139 1261 l78 0 q40 -166 60 -355 q-20 -139 -20 -236 q0 -251 20 -768 q-39 -89 -79 -98 l-59 0 q-31 0 -79 79 l0 354 q0 733 79 1024 Z" /><glyph glyph-name="uniFF0C" unicode="&#xff0c;" d="M396 302 l46 0 q106 0 106 -106 l0 -120 q0 -144 -227 -257 l-15 31 q166 124 166 271 q-100 0 -121 61 l0 75 q0 21 45 45 Z" /></font>
</defs>
</svg>
